<?xml version="1.0" encoding="UTF-8"?>
<!-- Generated by Pixelmator Pro 3.6.18 -->
<svg width="32" height="32" viewBox="0 0 32 32" xmlns="http://www.w3.org/2000/svg">
    <path id="Shape-copy" fill="#000000" fill-rule="evenodd" stroke="none" opacity="0.252192" d="M 10.503695 29.620768 C 10.653198 29.058374 10.805877 28.78441 10.939436 28.649124 C 11.072993 28.51384 11.33347 28.360609 11.518271 28.308613 C 11.703074 28.256617 12.490093 28.213839 13.267202 28.213551 L 14.680129 28.213028 L 14.680129 27.229399 C 14.680129 26.24577 14.680129 26.24577 14.425339 26.19001 C 14.285205 26.159342 13.799332 26.030521 13.345622 25.90374 C 12.891913 25.77696 12.224827 25.543064 11.863208 25.383972 C 11.50159 25.22488 10.855869 24.86058 10.428275 24.574415 C 10.00068 24.288252 9.331085 23.733465 8.940286 23.341557 C 8.549487 22.94965 8.007959 22.312256 7.73689 21.925127 C 7.465822 21.537998 7.085442 20.883167 6.891602 20.469948 C 6.697762 20.056726 6.432854 19.347034 6.302918 18.892853 C 6.172982 18.438671 6.018679 17.615377 5.960021 17.063309 C 5.901365 16.511242 5.869403 15.426065 5.888995 14.65181 C 5.918926 13.468985 5.953183 13.196249 6.103413 12.94475 C 6.20175 12.780128 6.420628 12.569927 6.589807 12.477638 C 6.758987 12.385349 7.064198 12.309841 7.268055 12.309841 C 7.471912 12.309841 7.777123 12.385349 7.946303 12.477638 C 8.115482 12.569927 8.333564 12.780128 8.430928 12.94475 C 8.584268 13.20402 8.616327 13.514055 8.670528 15.261829 C 8.714934 16.693747 8.779241 17.456703 8.892012 17.889608 C 8.979411 18.225121 9.190809 18.809626 9.361786 19.188507 C 9.532762 19.567392 9.85603 20.137526 10.080161 20.455473 C 10.304291 20.77342 10.693623 21.228535 10.945342 21.466839 C 11.197062 21.705143 11.629626 22.051926 11.906598 22.237465 C 12.183568 22.423004 12.681186 22.698246 13.012412 22.84911 C 13.343639 22.999977 13.927341 23.202213 14.309525 23.298525 C 14.785563 23.418489 15.339969 23.47364 16.069893 23.47364 C 16.796963 23.47364 17.356085 23.418272 17.830259 23.299316 C 18.212444 23.203438 18.831181 22.982706 19.205225 22.8088 C 19.579271 22.634893 20.142126 22.306854 20.456013 22.079826 C 20.769899 21.852797 21.223965 21.453274 21.465046 21.191996 C 21.706125 20.930719 22.067568 20.459621 22.26825 20.145111 C 22.468931 19.830601 22.762598 19.258247 22.920841 18.873211 C 23.086264 18.470715 23.267326 17.783779 23.346819 17.25712 C 23.422861 16.753307 23.494801 15.644264 23.506683 14.792583 C 23.525372 13.453329 23.552452 13.203621 23.707088 12.94475 C 23.805424 12.780128 24.024303 12.569927 24.193483 12.477638 C 24.362661 12.385349 24.667875 12.309841 24.871731 12.309841 C 25.075586 12.309841 25.380798 12.385349 25.549978 12.477638 C 25.719158 12.569927 25.938036 12.780128 26.036373 12.94475 C 26.186602 13.196249 26.22086 13.468985 26.25079 14.65181 C 26.270384 15.426065 26.238419 16.511242 26.179764 17.063309 C 26.121107 17.615377 25.966803 18.438671 25.836866 18.892853 C 25.706932 19.347034 25.442022 20.056726 25.248184 20.469948 C 25.054342 20.883167 24.673962 21.537998 24.402895 21.925127 C 24.131826 22.312256 23.590298 22.94965 23.199497 23.341557 C 22.808701 23.733465 22.139105 24.288252 21.71151 24.574415 C 21.283916 24.86058 20.638195 25.22488 20.276577 25.383972 C 19.914959 25.543064 19.247871 25.77696 18.794163 25.90374 C 18.340454 26.030521 17.85458 26.159342 17.714447 26.19001 C 17.459656 26.24577 17.459656 26.24577 17.459656 27.221645 L 17.459656 28.197523 L 19.057884 28.228739 C 20.438314 28.255699 20.696383 28.284634 20.951609 28.441061 C 21.114132 28.54067 21.32165 28.762379 21.412758 28.933746 C 21.503868 29.105114 21.578411 29.414272 21.578411 29.620768 C 21.578411 29.827261 21.503868 30.136419 21.412758 30.307787 C 21.32165 30.479155 21.114132 30.700863 20.951609 30.800472 C 20.671665 30.97205 20.422073 30.982462 16.20887 30.998316 C 13.719821 31.007683 11.634974 30.977066 11.473987 30.928783 C 11.315786 30.881336 11.076156 30.730898 10.941476 30.594475 C 10.806795 30.458052 10.653198 30.183159 10.600148 29.983601 L 10.503695 29.620768 Z M 16.023567 21.634489 C 15.717819 21.631281 15.19966 21.569786 14.872104 21.497833 C 14.544545 21.425877 13.965558 21.217407 13.585463 21.034567 C 13.064185 20.783813 12.715737 20.521175 12.167323 19.965668 C 11.620356 19.411625 11.359446 19.056822 11.113978 18.533253 C 10.934522 18.150478 10.726123 17.542885 10.650874 17.183048 C 10.539618 16.651033 10.514055 15.55562 10.514055 11.32016 C 10.514055 7.0847 10.539618 5.989285 10.650874 5.457273 C 10.726123 5.097433 10.934522 4.489841 11.113978 4.107067 C 11.359446 3.583498 11.620356 3.228693 12.167323 2.674652 C 12.714291 2.120609 13.064565 1.856325 13.581449 1.607683 C 13.959336 1.425905 14.559171 1.214813 14.914414 1.138588 C 15.269659 1.062365 15.789624 1 16.069893 1 C 16.350161 1 16.870127 1.062365 17.22537 1.138588 C 17.580614 1.214813 18.180449 1.425905 18.558336 1.607683 C 19.07522 1.856325 19.425495 2.120609 19.972462 2.674652 C 20.51943 3.228693 20.78034 3.583498 21.025806 4.107067 C 21.205263 4.489841 21.413662 5.097433 21.488911 5.457273 C 21.600166 5.989285 21.625731 7.0847 21.625731 11.32016 C 21.625731 15.55562 21.600166 16.651033 21.488911 17.183048 C 21.413662 17.542885 21.205263 18.150478 21.025806 18.533253 C 20.78034 19.056822 20.51943 19.411625 19.972462 19.965668 C 19.425495 20.519711 19.07522 20.783997 18.558336 21.032637 C 18.180449 21.214417 17.580614 21.425508 17.22537 21.501732 C 16.870127 21.577955 16.329315 21.637695 16.023567 21.634489 Z"/>
</svg>
