<?xml version="1.0" encoding="UTF-8"?>
<!-- Generated by Pixelmator Pro 3.6.18 -->
<svg width="1799" height="427" viewBox="0 0 1799 427" xmlns="http://www.w3.org/2000/svg">
    <g id="Group">
        <g id="g1"/>
        <path id="Shape" fill="#000000" fill-rule="evenodd" stroke="none" d="M 105.235085 11.141022 C 105.634544 11.728821 117.66729 24.546021 157.987656 67.037567 L 90.773201 67.123718 C 48.266132 67.178223 22.386461 67.395416 20.369661 67.714691 C 18.615677 67.99234 15.699826 68.947174 13.890016 69.836456 C 11.930681 70.799255 9.435617 72.615265 7.722717 74.325287 C 5.763128 76.281555 4.253516 78.437988 2.987588 81.089203 C 1.12918 84.981201 1.12918 84.981201 0.964521 183.920441 C 0.849313 253.147003 0.960936 283.680115 1.336181 285.591553 C 1.631153 287.094116 2.450679 289.505249 3.157354 290.949615 C 3.864029 292.394012 5.549959 294.787842 6.903889 296.269226 C 8.257809 297.750671 10.486973 299.682343 11.857589 300.561829 C 13.228196 301.441376 15.636623 302.573181 17.209654 303.076935 C 19.962162 303.958496 25.68243 303.989197 169.350815 303.893433 C 318.631958 303.793915 318.631958 303.793915 322.523926 301.935547 C 325.181854 300.666382 327.336578 299.156494 329.319427 297.173645 C 330.916351 295.576721 332.784698 293.160706 333.471375 291.804749 C 334.158051 290.448792 335.081299 288.121094 335.523132 286.63208 C 336.249878 284.182495 336.326324 274.598206 336.326324 185.928406 C 336.326324 99.352325 336.237 87.58902 335.559753 84.988861 C 335.138123 83.370117 334.097351 80.829559 333.246857 79.343079 C 332.396393 77.856598 330.524323 75.482819 329.08667 74.067963 C 327.649048 72.653137 325.2034 70.85321 323.651855 70.068268 C 322.100342 69.283264 319.551117 68.339783 317.986908 67.97168 C 315.680481 67.428864 302.256622 67.300873 246.968231 67.294586 L 178.793594 67.286774 L 204.850494 39.850708 C 219.181854 24.760895 231.298828 11.807831 231.7771 11.066132 C 232.275253 10.29364 232.647049 8.75946 232.647522 7.47464 C 232.647964 6.11264 232.259262 4.593628 231.657822 3.607208 C 231.113083 2.713745 229.936371 1.537048 229.042908 0.992279 C 228.121292 0.430389 226.533768 0.001038 225.373795 0 C 224.050751 -0.001221 222.772476 0.393921 221.75174 1.119629 C 220.884171 1.73642 211.212509 11.72348 200.259125 23.313049 C 189.30574 34.902618 177.682495 47.189148 174.429611 50.616364 L 168.51535 56.847778 L 142.428467 29.295197 C 128.080719 14.141266 115.699211 1.322449 114.914055 0.808868 C 113.847443 0.111206 112.880508 -0.066681 111.089943 0.105408 C 109.771866 0.232056 108.101837 0.764343 107.378769 1.288391 C 106.655724 1.812347 105.585281 3.20874 105.000015 4.39151 C 104.246513 5.914246 104.019501 7.05722 104.222313 8.307129 C 104.379875 9.277924 104.835594 10.553192 105.235085 11.141022 Z M 226.920013 278.743835 C 222.932526 279.860779 222.932526 279.860779 141.93692 279.931335 C 97.389336 279.970154 59.317192 279.809998 57.332153 279.5755 C 55.347115 279.340973 51.982689 278.569153 49.855644 277.860382 C 47.728596 277.151581 44.418217 275.649933 42.499241 274.523376 C 40.580273 273.396851 37.308907 270.774323 35.229565 268.695557 C 32.975632 266.442291 30.667225 263.509644 29.513136 261.433289 C 28.448423 259.517792 27.065647 256.184021 26.440275 254.024933 C 26.369856 253.781799 26.303797 253.553726 26.241831 253.324554 C 25.303286 249.853348 25.303713 246.128265 25.310623 185.982315 C 25.316967 130.771271 25.421755 121.42514 26.065071 118.696198 C 26.475958 116.953186 27.600906 113.955444 28.564938 112.034485 C 29.528978 110.113617 31.334251 107.220917 32.576675 105.606323 C 33.819092 103.991669 36.207256 101.560791 37.88369 100.204315 C 39.560143 98.847809 42.53957 96.921906 44.504646 95.924469 C 46.469749 94.927063 49.626122 93.628235 51.518826 93.038177 C 52.578094 92.707947 53.31131 92.479401 56.2174 92.31604 L 78.805244 131.439331 L 101.650261 91.870605 C 111.36142 91.84436 123.066933 91.819214 137.201797 91.788879 C 153.234985 91.754486 166.270386 91.732147 176.886383 91.725555 L 199.815125 131.439331 L 222.487915 92.168884 C 223.086777 92.219666 223.551743 92.275391 223.929413 92.336334 C 226.396652 92.734497 229.823593 93.630219 231.544876 94.326721 C 233.266129 95.023315 235.953506 96.345673 237.51683 97.26532 C 239.080154 98.184937 242.188889 100.746857 244.425156 102.958496 C 247.810867 106.306793 248.870743 107.766235 250.759796 111.681091 C 252.007568 114.266907 253.322174 117.838745 253.681168 119.61853 C 254.198776 122.18457 254.333923 135.959839 254.333923 186.159531 C 254.333923 244.422165 254.265518 249.734512 253.475311 252.853699 C 253.003082 254.717743 251.92691 257.688232 251.083786 259.454773 C 250.240692 261.221375 248.429001 264.070007 247.057785 265.785126 C 245.686615 267.500244 243.118607 270.068512 241.351196 271.49234 C 239.583725 272.916199 236.510895 274.878967 234.522568 275.854034 C 232.534271 276.829102 229.113113 278.129517 226.920013 278.743835 Z M 305.306335 199.390213 C 303.784668 199.207642 301.921692 198.878113 301.166321 198.657959 C 300.41095 198.437775 299.075867 197.934616 298.199493 197.539825 C 297.32309 197.14502 295.816223 196.265991 294.8508 195.586441 C 293.885406 194.906876 292.3396 193.581726 291.41568 192.641632 C 290.49176 191.701553 288.749268 189.540924 287.543488 187.840225 C 285.785248 185.360275 285.228546 184.72139 284.73172 184.613388 C 284.391022 184.539307 284.087463 184.442184 284.057129 184.397552 C 284.026825 184.352921 284.042816 183.8349 284.092682 183.246399 C 284.173065 182.29747 284.019257 181.848297 282.733124 179.276306 C 281.935516 177.681244 280.725403 175.438202 280.044037 174.291733 C 279.36261 173.145279 277.959412 171.126236 276.925781 169.804962 C 275.892151 168.483673 273.717346 165.942322 272.092896 164.157532 C 269.550812 161.364471 269.129883 160.80014 269.071167 160.106476 C 269.023773 159.546143 269.11554 159.117157 269.372375 158.698822 C 269.613617 158.305847 270.068451 158.00351 270.683563 157.82724 C 271.201569 157.678802 272.876862 157.359558 274.406433 157.117767 C 275.936005 156.876007 278.234009 156.559448 279.513092 156.414307 C 280.792175 156.269165 283.017456 156.084869 284.45816 156.00473 C 285.898895 155.924622 288.279999 155.856659 289.749542 155.853699 C 291.219086 155.8508 294.089478 155.996887 296.128235 156.178375 C 298.983002 156.432526 300.56369 156.682831 303.005432 157.267303 C 304.749176 157.684692 307.085327 158.370819 308.196838 158.791992 C 309.30838 159.213165 311.144989 160.04541 312.278259 160.641449 C 313.41153 161.237457 314.511993 161.709625 314.723755 161.690704 C 314.935547 161.671753 315.090118 161.773438 315.067352 161.916626 C 315.044525 162.059845 315.849274 162.886383 316.855652 163.753418 C 317.862 164.620453 319.322845 166.142944 320.10199 167.13678 C 320.881104 168.130585 321.8974 169.658752 322.360413 170.532684 C 322.823395 171.406601 323.464569 172.903152 323.785217 173.858337 C 324.105835 174.813538 324.516357 176.489243 324.697418 177.582138 C 324.87851 178.675064 325.009552 180.419632 324.988647 181.458984 C 324.96582 182.59256 324.754883 184.251251 324.461456 185.604294 C 324.192413 186.844849 323.652191 188.589691 323.260986 189.481705 C 322.869751 190.373718 321.901276 192.025101 321.108856 193.151459 C 319.917999 194.844177 319.346039 195.433441 317.811188 196.548843 C 316.757935 197.314285 315.306671 198.133865 314.457886 198.442627 C 313.634857 198.742004 312.110535 199.121201 311.070465 199.285294 C 310.030426 199.449402 309.123657 199.627808 309.05542 199.681747 C 308.987183 199.735687 308.73822 199.766846 308.502197 199.750992 C 308.266144 199.735153 306.828003 199.5728 305.306335 199.390213 Z M 317.767456 125.791687 C 318.301239 125.213654 319.426697 123.692871 320.268433 122.41217 C 321.110199 121.131439 321.896606 119.916473 322.015991 119.71225 C 322.135406 119.507996 322.218475 119.271271 322.200623 119.186157 C 322.18277 119.101013 322.427277 118.209808 322.743988 117.205658 C 323.06073 116.201508 323.400787 114.667969 323.499664 113.797791 C 323.601685 112.90036 323.514954 111.235931 323.299286 109.951874 C 322.985016 108.08075 322.712494 107.306091 321.728119 105.485535 C 321.07309 104.274078 320.026581 102.671051 319.402496 101.923218 C 318.778412 101.175354 317.457336 99.914001 316.466797 99.120148 C 315.386414 98.254364 313.995667 97.326141 312.991119 96.800415 C 312.070068 96.318359 310.449982 95.65799 309.390961 95.332886 C 308.33194 95.007813 306.648926 94.628265 305.65097 94.489532 C 304.652985 94.350739 303.027557 94.257538 302.038879 94.28244 C 301.050201 94.307312 299.229218 94.535828 297.99231 94.790253 C 296.755402 95.044678 294.741302 95.673676 293.516571 96.188019 C 292.29187 96.702362 291.193237 97.054291 291.075226 96.970032 C 290.957184 96.885803 290.797272 96.978851 290.719818 97.17688 C 290.642365 97.374878 289.729156 98.149475 288.69046 98.898224 C 287.651733 99.646973 286.088043 100.920013 285.215546 101.727264 C 284.343048 102.534515 282.6875 104.319824 281.53653 105.694702 C 279.924896 107.619873 278.996216 108.923248 277.496155 111.365387 C 276.424866 113.109467 275.014557 115.61377 274.362091 116.930511 C 273.709625 118.247284 272.709045 120.409058 272.13855 121.734406 C 271.568054 123.059784 270.741058 125.133881 270.300812 126.343567 C 269.860504 127.553223 269.119507 129.751373 268.654114 131.228333 C 268.18869 132.705322 267.727692 134.34726 267.629669 134.877106 C 267.513245 135.506317 267.581085 136.048248 267.825348 136.439392 C 268.085327 136.855743 268.428436 137.12912 268.951141 137.336487 C 269.598236 137.59317 270.291046 137.467926 273.924438 136.437408 C 276.246216 135.7789 279.49057 134.964996 281.134033 134.628754 C 282.777557 134.29248 285.210419 133.936432 286.540405 133.837524 C 287.870392 133.738617 290.417694 133.655273 292.20105 133.652344 C 295.076691 133.647614 295.547333 133.710114 296.360901 134.205109 C 296.865479 134.512054 297.322052 134.757294 297.375519 134.750061 C 297.428986 134.742798 297.651245 134.514374 297.869446 134.242432 C 298.187592 133.845856 299.007629 133.632294 302.011353 133.163879 C 304.071228 132.842651 306.782043 132.246033 308.035431 131.838043 C 309.288788 131.430054 311.164063 130.637054 312.202728 130.075806 C 313.241364 129.514557 314.699982 128.557495 315.444031 127.949005 C 316.18811 127.340485 317.233612 126.36969 317.767456 125.791687 Z"/>
        <g id="g2">
            <path id="path1" fill="#ff6ef5" fill-rule="evenodd" stroke="none" d="M 140.472687 426.97821 C 140.432709 426.993683 140.392319 427.000946 140.351486 426.999908 C 140.24028 426.997101 140.12941 426.994202 140.018875 426.99118 C 139.908356 426.994202 139.797485 426.997101 139.686279 426.999908 C 139.645447 427.000946 139.605057 426.993683 139.565079 426.97821 C 133.8022 426.805603 129.01619 426.35672 126.466858 425.745453 C 124.148621 425.189606 121.694 424.37796 121.012161 423.941772 C 120.330353 423.505585 118.656746 422.783478 117.293076 422.337097 C 115.92942 421.890747 114.174431 420.973145 113.393127 420.298035 C 112.611855 419.622925 111.384529 418.894928 110.665802 418.680206 C 109.947075 418.465515 107.789322 417.325378 105.870766 416.146606 C 103.952255 414.967834 100.047218 411.926758 97.192871 409.388702 C 94.338577 406.850616 90.329613 402.855652 88.284119 400.511017 C 86.238609 398.166382 83.634407 394.684692 82.497047 392.773987 C 81.359688 390.863251 79.54541 387.910248 78.465309 386.211731 C 77.385201 384.513214 75.583748 381.245575 74.462021 378.950256 C 73.340309 376.654938 71.448532 372.346924 70.258102 369.376831 C 69.06765 366.406708 67.278885 361.104401 66.283035 357.593872 C 65.287201 354.083344 63.889793 347.829712 63.177715 343.69693 C 61.984524 336.771484 61.865299 334.706848 61.656075 317.344696 C 61.4291 298.506622 61.57407 223.473206 62.245277 220.205307 C 62.679638 218.090546 63.714867 214.620575 64.545799 212.494278 C 65.376762 210.368011 67.013885 207.032761 68.183929 205.082581 C 69.35392 203.132431 71.398422 200.249161 72.727264 198.675308 C 74.056091 197.10144 76.535912 194.554886 78.237961 193.016357 C 79.940025 191.477814 82.729347 189.375244 84.43644 188.344101 C 86.143578 187.312943 89.548615 185.636871 92.003212 184.619507 C 94.457832 183.602097 98.474442 182.406372 100.929062 181.962219 C 103.383659 181.518066 107.846558 181.154709 110.846634 181.154709 C 113.846703 181.154709 118.309631 181.518066 120.764229 181.962219 C 123.218849 182.406372 127.198349 183.590088 129.607635 184.592697 C 132.016876 185.595413 135.14093 187.090866 136.549957 187.916031 C 137.700958 188.590118 139.111343 189.502045 140.018875 190.150879 C 140.926407 189.50206 142.336807 188.590134 143.487808 187.916031 C 144.89682 187.090851 148.020874 185.595413 150.43013 184.592712 C 152.839401 183.590073 156.818909 182.406372 159.273529 181.962204 C 161.728134 181.518066 166.191055 181.154709 169.191116 181.154709 C 172.191193 181.154709 176.654099 181.518066 179.108704 181.962204 C 181.563324 182.406372 185.579926 183.602097 188.034546 184.619507 C 190.489151 185.636871 193.89418 187.312943 195.601318 188.344101 C 197.308411 189.375244 200.097733 191.477814 201.799805 193.016357 C 203.501846 194.554901 205.981674 197.10144 207.310486 198.675293 C 208.639343 200.249161 210.683838 203.132431 211.853836 205.082565 C 213.023865 207.032745 214.660995 210.368011 215.491959 212.494278 C 216.322891 214.620575 217.358124 218.090561 217.79248 220.205307 C 218.463684 223.47319 218.608658 298.506622 218.381683 317.344696 C 218.172455 334.706848 218.053238 336.771484 216.860046 343.69693 C 216.147964 347.829712 214.750565 354.083344 213.75473 357.593872 C 212.758881 361.104401 210.970108 366.406708 209.779648 369.376831 C 208.589233 372.346924 206.697449 376.654938 205.575745 378.950256 C 204.45401 381.245575 202.652557 384.513214 201.572449 386.211731 C 200.49234 387.910248 198.67807 390.863251 197.54071 392.773987 C 196.403351 394.684692 193.799149 398.166382 191.753632 400.511017 C 189.708145 402.855652 185.699188 406.850616 182.844879 409.388702 C 179.99054 411.926758 176.08551 414.967834 174.166992 416.146606 C 172.248428 417.325378 170.090683 418.465515 169.371964 418.680206 C 168.653229 418.894928 167.425903 419.622925 166.644638 420.298035 C 165.863327 420.973145 164.108337 421.890747 162.74469 422.337097 C 161.381012 422.783478 159.707413 423.505585 159.025589 423.941772 C 158.34375 424.37796 155.88913 425.189606 153.570892 425.745453 C 151.021576 426.35672 146.235565 426.805603 140.472687 426.97821 Z"/>
        </g>
        <path id="path2" fill="#000000" fill-rule="evenodd" stroke="none" d="M 135.794083 349.230682 C 135.794083 351.875732 137.515625 354.019989 139.639236 354.019989 C 141.762833 354.019989 143.484375 351.875732 143.484375 349.230682 L 143.484375 233.902542 C 143.484375 231.257462 141.762833 229.113205 139.639236 229.113205 C 137.515625 229.113205 135.794083 231.257462 135.794083 233.902542 Z"/>
    </g>
    <path id="path3" fill="#000000" fill-rule="evenodd" stroke="none" d="M 1061.408813 320.960938 C 1059.669067 320.944092 1057.148682 320.452789 1055.807983 319.869202 C 1054.467163 319.285583 1052.585327 317.977539 1051.625977 316.962341 C 1050.666626 315.947174 1049.07373 313.530334 1048.086182 311.591553 C 1047.098633 309.652832 1045.714722 305.59906 1045.010986 302.583191 C 1044.307129 299.567383 1043.218872 291.812347 1042.592651 285.349823 C 1041.966309 278.887299 1041.080933 268.841003 1040.625122 263.02475 C 1040.169189 257.208496 1039.456909 242.050949 1039.042114 229.341324 C 1038.627441 216.631683 1038.474487 201.297897 1038.702026 195.26622 C 1038.929688 189.234528 1039.468018 179.011993 1039.898193 172.549484 C 1040.328491 166.086945 1041.182983 157.385864 1041.797119 153.213776 C 1042.411377 149.041626 1043.689453 143.97818 1044.637329 141.961639 C 1045.614014 139.883698 1047.408081 137.656525 1048.778198 136.821045 C 1050.107788 136.010254 1052.605713 135.3479 1054.328979 135.349121 C 1056.052368 135.350342 1058.405884 135.973602 1059.559082 136.734161 C 1060.712158 137.49469 1062.371216 139.02652 1063.245728 140.138245 C 1064.120117 141.249969 1065.589233 144.062256 1066.510376 146.387817 C 1067.431519 148.713379 1068.376343 151.774994 1068.610107 153.191437 C 1068.843994 154.60788 1069.27478 155.665375 1069.567627 155.541443 C 1069.860352 155.417511 1072.46167 152.799591 1075.348145 149.723938 C 1079.234863 145.582428 1082.066284 143.406128 1086.262695 141.334564 C 1089.379272 139.796143 1093.867798 138.119812 1096.237427 137.609406 C 1098.607056 137.09903 1103.646973 136.703094 1107.437256 136.729584 C 1112.14624 136.762482 1116.115479 137.317657 1119.970581 138.482635 C 1123.07373 139.420349 1127.606689 141.393951 1130.043945 142.868439 C 1132.481201 144.342926 1136.40918 147.638184 1138.772827 150.191223 C 1141.136475 152.744232 1144.137939 156.704254 1145.442749 158.991272 C 1146.747559 161.278259 1148.674683 165.440704 1149.725098 168.241119 C 1150.775635 171.041565 1152.301392 176.681564 1153.115601 180.774506 C 1154.246948 186.461899 1154.595947 191.645966 1154.595947 202.765213 C 1154.595947 213.281677 1154.196655 219.674606 1153.155151 225.830185 C 1152.362671 230.513962 1150.657593 237.26683 1149.365845 240.836578 C 1148.074219 244.406326 1145.698608 249.360886 1144.086914 251.84671 C 1142.47522 254.33255 1139.052612 258.305176 1136.481079 260.674744 C 1133.909546 263.044312 1129.768433 265.976501 1127.278442 267.190674 C 1124.788574 268.404846 1120.398804 269.896851 1117.52356 270.506287 C 1114.648315 271.115662 1109.828369 271.614258 1106.8125 271.614258 C 1103.796631 271.614258 1098.861572 271.093567 1095.845825 270.457153 C 1092.829956 269.82074 1088.637939 268.407745 1086.530273 267.317169 C 1084.422607 266.226593 1080.97168 263.888763 1078.86145 262.122009 C 1076.751221 260.355225 1074.914307 259.04245 1074.779297 259.204712 C 1074.644409 259.367004 1074.823242 262.319763 1075.176636 265.766418 C 1075.530151 269.213104 1076.208618 277.478333 1076.684326 284.133636 C 1077.302002 292.773315 1077.310791 298.038269 1076.715454 302.542023 C 1076.193115 306.492798 1075.072876 310.459808 1073.717651 313.158234 C 1072.012817 316.552734 1070.813354 317.840454 1068.062988 319.229095 C 1066.098877 320.220703 1063.188599 320.97818 1061.408813 320.960938 Z M 1591.362305 281.505676 C 1588.961548 281.665375 1585.939819 281.406067 1584.647339 280.929382 C 1583.354736 280.452698 1581.353516 279.18396 1580.199951 278.109985 C 1579.046387 277.036011 1577.353638 274.416077 1576.43811 272.287903 C 1575.522583 270.15979 1574.382202 265.493347 1573.903809 261.918091 C 1573.35437 257.81134 1573.225952 250.40004 1573.55542 241.791946 C 1573.842163 234.297852 1574.596802 223.112869 1575.232422 216.936432 C 1575.868042 210.759995 1576.939453 201.418716 1577.613403 196.178024 C 1578.287354 190.937363 1579.535889 182.41951 1580.387939 177.249496 C 1581.23999 172.079468 1582.667114 163.971954 1583.559082 159.232758 C 1584.451294 154.493591 1585.364624 149.513367 1585.588745 148.165619 C 1585.996338 145.715149 1585.996338 145.715149 1577.880127 147.562866 C 1573.41626 148.579102 1566.225464 149.753937 1561.900635 150.173584 C 1556.85437 150.663208 1552.137573 150.667542 1548.734619 150.185638 C 1545.818115 149.772583 1542.447144 148.925385 1541.243408 148.302917 C 1540.039673 147.68042 1538.446899 146.243408 1537.703979 145.109497 C 1536.960938 143.975586 1536.163696 141.880707 1535.932251 140.454224 C 1535.700806 139.02774 1535.923462 136.611969 1536.427124 135.085846 C 1536.930786 133.559692 1538.784424 131.008728 1540.546265 129.416992 C 1542.308105 127.825287 1545.977661 125.512695 1548.700928 124.277954 C 1551.424072 123.043213 1556.647095 121.165039 1560.307495 120.104279 C 1563.968018 119.043518 1570.64502 117.465057 1575.145386 116.596588 C 1579.64563 115.728119 1589.008667 114.625702 1595.951904 114.14682 C 1604.931641 113.527466 1611.567139 113.512085 1618.936768 114.093628 C 1624.635132 114.543243 1631.941162 115.452209 1635.172485 116.113556 C 1638.403687 116.774872 1643.680908 118.639709 1646.899536 120.257629 C 1650.782715 122.209625 1653.352295 124.094788 1654.537109 125.861023 C 1655.815918 127.767517 1656.321655 129.656616 1656.31958 132.519379 C 1656.317627 135.147888 1655.774292 137.405609 1654.7323 139.114624 C 1653.689331 140.825317 1651.615967 142.429993 1648.664429 143.810974 C 1644.473999 145.771545 1643.463867 145.908936 1633.214111 145.912384 C 1627.182495 145.914398 1618.579712 145.609772 1614.097046 145.235413 C 1605.946777 144.554718 1605.946777 144.554718 1606.497559 150.327087 C 1606.800537 153.501892 1607.71582 164.559448 1608.531616 174.89949 C 1609.347534 185.239532 1610.432007 202.51207 1610.941895 213.282928 C 1611.45166 224.053802 1611.653687 238.153839 1611.390625 244.616364 C 1611.127563 251.078888 1610.529663 258.128906 1610.062134 260.283081 C 1609.594482 262.437256 1608.688232 265.848694 1608.047974 267.864044 C 1607.407837 269.879395 1605.851074 272.954224 1604.588745 274.69696 C 1603.326294 276.439697 1600.81604 278.619263 1599.010376 279.540405 C 1597.204712 280.461609 1593.763184 281.345947 1591.362305 281.505676 Z M 470.883026 277.82782 C 464.343964 277.783661 456.350098 277.299103 453.118835 276.751038 C 449.887573 276.203003 444.945251 275.041809 442.135925 274.170654 C 439.326569 273.2995 434.920135 271.565643 432.343872 270.317688 C 429.767578 269.069702 425.507538 266.587158 422.877136 264.800842 C 420.246704 263.014587 416.016846 259.285278 413.477448 256.513489 C 410.938049 253.74176 407.316864 248.775604 405.430389 245.477631 C 403.543915 242.179657 401.002472 236.582932 399.782745 233.040482 C 398.563019 229.498016 396.991302 223.269226 396.29007 219.198715 C 395.537872 214.832535 395.008942 207.345627 395.000122 200.940247 C 394.991913 194.968597 395.394806 187.195236 395.895447 183.666107 C 396.396118 180.136963 397.531219 174.605728 398.417908 171.374466 C 399.304626 168.143219 400.939392 163.208221 402.05072 160.407776 C 403.162079 157.60733 405.303192 153.20108 406.808716 150.616089 C 408.31427 148.031067 411.213715 143.801056 413.251953 141.216034 C 415.290161 138.631042 418.650055 135.106049 420.718384 133.38269 C 422.786682 131.659332 425.723541 129.354095 427.24469 128.259918 C 428.765839 127.16571 431.59668 125.37323 433.535431 124.276642 C 435.474182 123.180054 438.999207 121.521454 441.368774 120.590851 C 443.738373 119.660248 448.497162 118.16922 451.943817 117.277466 C 456.023834 116.221863 461.988892 115.495789 469.038788 115.196686 C 475.404877 114.926575 482.829285 115.103363 487.055511 115.625702 C 491.009155 116.114319 496.358948 117.05423 498.94397 117.714325 C 501.528961 118.37442 506.111481 120.13147 509.127319 121.618774 C 512.143188 123.10614 516.26355 125.753662 518.283752 127.502136 C 520.38092 129.317291 522.854492 132.516052 524.049133 134.957794 C 525.86615 138.671631 526.10321 139.992432 525.850525 144.995575 C 525.621826 149.524109 525.142517 151.374786 523.610168 153.64505 C 522.42334 155.403381 520.055786 157.325195 517.558167 158.557556 C 514.283203 160.173492 512.304932 160.581848 507.75116 160.581848 C 502.930359 160.581848 500.714142 160.070404 493.445282 157.280548 C 488.714539 155.464844 482.767242 153.430969 480.229065 152.760864 C 477.690887 152.09079 472.755859 151.510315 469.26236 151.470947 C 465.76886 151.43161 460.619263 151.860992 457.818848 152.42514 C 455.018402 152.989288 450.515625 154.472839 447.812653 155.721924 C 444.884308 157.075104 441.223175 159.66806 438.753662 162.137848 C 436.428436 164.463318 433.511658 168.517822 432.108917 171.374466 C 430.733765 174.174911 429.088287 178.933655 428.452301 181.949509 C 427.79953 185.044952 427.290039 191.626038 427.282349 197.061737 C 427.274475 202.640472 427.775208 209.230301 428.472809 212.728455 C 429.13504 216.049255 430.903168 221.294281 432.401947 224.384064 C 434.233215 228.159302 436.422363 231.166504 439.076508 233.552795 C 441.248749 235.505829 444.963531 238.051682 447.331573 239.210281 C 449.699646 240.368851 453.644897 241.789307 456.098846 242.366837 C 458.552765 242.944366 464.131012 243.422394 468.494965 243.429123 C 473.04895 243.436157 480.224396 242.767334 485.3367 241.859344 C 490.235687 240.989227 496.979065 239.876358 500.32196 239.386292 C 505.031158 238.695923 507.386597 238.716049 510.780823 239.475647 C 513.777893 240.146362 516.103516 241.306961 518.143494 243.149948 C 520.319946 245.116241 521.377441 246.894699 522.058655 249.734314 C 522.780579 252.743515 522.780762 254.505188 522.059448 257.511841 C 521.460022 260.010498 520.052979 262.618988 518.120239 264.814758 C 516.466492 266.693481 513.061584 269.318481 510.553711 270.648193 C 508.045868 271.977844 503.526489 273.790405 500.510651 274.676086 C 497.494781 275.561768 492.269897 276.651276 488.89975 277.09726 C 485.529602 277.543243 477.422089 277.872009 470.883026 277.82782 Z M 572.00354 277.516907 C 570.165039 277.71814 566.976318 277.411621 564.91748 276.835815 C 562.858582 276.26001 560.338501 275.003906 559.317261 274.044495 C 558.296021 273.085083 556.52478 270.215179 555.381226 267.666901 C 554.23761 265.118622 552.647461 259.594788 551.847473 255.391678 C 551.047546 251.188599 549.841003 243.519699 549.166199 238.349686 C 548.491394 233.179657 547.4151 222.957138 546.774353 215.63295 C 546.133667 208.308746 545.243103 195.794968 544.795471 187.824524 C 544.347717 179.854095 543.982422 166.784637 543.983643 158.781311 C 543.984802 150.777985 544.359985 140.379211 544.817261 135.672913 C 545.274597 130.966614 546.346252 124.120575 547.198669 120.459503 C 548.051086 116.798431 549.593811 111.956696 550.626953 109.700043 C 551.660095 107.44339 553.443665 104.366882 554.590454 102.863342 C 555.737305 101.359772 558.586609 99.194641 560.922241 98.05191 C 564.24585 96.425812 565.929016 96.059906 568.666077 96.368408 C 570.589539 96.585205 573.044678 97.340118 574.122009 98.04599 C 575.19928 98.751892 576.629028 100.16626 577.299255 101.189117 C 577.969421 102.211975 579.081482 105.81308 579.770447 109.19162 C 580.776001 114.122375 580.914978 117.810577 580.474854 127.883575 C 580.173279 134.785614 579.455872 145.543976 578.880554 151.791077 C 578.305237 158.038177 577.972656 163.29538 578.141418 163.473724 C 578.310181 163.6521 581.357422 160.784912 584.912964 157.102264 C 588.468506 153.419617 593.488342 149.067322 596.068176 147.43045 C 598.64801 145.79361 603.23053 143.589111 606.251587 142.531494 C 610.632629 140.997803 613.250427 140.614044 619.185974 140.635437 C 624.351318 140.654053 628.090332 141.13028 631.409302 142.192291 C 634.039185 143.033813 638.220825 145.069702 640.701843 146.716522 C 643.182861 148.363312 646.635559 151.500641 648.374512 153.688385 C 650.113464 155.876129 652.881775 160.486115 654.526245 163.93277 C 656.170715 167.379456 658.404419 173.306015 659.490051 177.102905 C 660.575684 180.899765 662.085754 188.478546 662.845825 193.944611 C 663.758301 200.506485 664.227783 208.80629 664.227783 218.374619 C 664.227783 226.345062 663.77771 236.385208 663.227539 240.68605 C 662.677429 244.986893 661.492188 250.979416 660.593689 254.002762 C 659.695251 257.026093 658.292542 260.811829 657.476624 262.415466 C 656.660706 264.019135 654.921387 266.55188 653.61145 268.043823 C 652.301514 269.535736 649.66626 271.353516 647.755432 272.083313 C 645.479797 272.952332 642.95929 273.283142 640.450256 273.042084 C 638.288025 272.83429 635.581665 271.934967 634.236694 270.977234 C 632.926147 270.044067 631.108093 267.73999 630.196594 265.857117 C 629.285095 263.974243 628.221497 259.646576 627.832947 256.240112 C 627.409058 252.523148 627.416382 245.671875 627.851257 239.106415 C 628.249817 233.089355 628.809692 221.292542 629.095398 212.891266 C 629.453186 202.371246 629.323364 195.910522 628.678406 192.136856 C 628.16333 189.123215 626.923401 184.869736 625.923096 182.684677 C 624.922729 180.499634 622.811707 177.456543 621.231934 175.922256 C 619.58313 174.320999 616.858459 172.712418 614.835754 172.146103 C 612.79895 171.575806 609.509949 171.345474 607.041443 171.600235 C 604.563721 171.855972 601.083557 172.959366 598.751526 174.228622 C 596.540833 175.431808 593.599182 177.739838 592.214478 179.357574 C 590.829773 180.975281 588.764282 184.159027 587.624512 186.432541 C 586.484741 188.706055 584.980835 192.681198 584.282471 195.26622 C 583.584167 197.851227 582.828735 204.196243 582.603821 209.366257 C 582.305054 216.233337 582.640503 222.492584 583.848694 232.594971 C 584.758301 240.20076 585.50061 250.24704 585.498169 254.920044 C 585.495789 259.593048 585.108643 264.826416 584.637939 266.549744 C 584.167175 268.273102 582.917175 270.829102 581.860107 272.229767 C 580.803101 273.630432 578.905029 275.31073 577.642212 275.963745 C 576.379395 276.61676 573.84198 277.315674 572.00354 277.516907 Z M 1331.029663 137.708008 C 1331.685181 122.030762 1332.394897 116.02533 1333.091797 113.799286 C 1333.766235 111.645111 1335.2771 108.404602 1336.449219 106.598145 C 1337.621338 104.791687 1339.742188 102.687958 1341.162354 101.923157 C 1342.818359 101.031311 1345.316162 100.555359 1348.127197 100.596008 C 1351.206421 100.640472 1353.132813 101.123444 1354.603394 102.219513 C 1355.754639 103.077637 1357.401611 104.976624 1358.263306 106.439484 C 1359.582886 108.679779 1359.823242 110.458374 1359.787354 117.715973 C 1359.75647 123.947937 1359.297852 127.909821 1358.129883 132.031311 C 1356.70105 137.07312 1356.660889 137.685669 1357.780762 137.345917 C 1358.476929 137.134674 1362.325928 136.548645 1366.334106 136.04361 C 1370.342285 135.538574 1376.604614 135.311493 1380.25061 135.538971 C 1385.242798 135.850403 1387.93042 136.466644 1391.13501 138.034546 C 1393.834106 139.355072 1395.998657 141.100403 1397.052979 142.806335 C 1397.967285 144.285675 1398.915771 147.438263 1399.160767 149.812042 C 1399.478149 152.886902 1399.222412 155.133057 1398.271484 157.623077 C 1397.537354 159.545349 1395.762939 162.148712 1394.328125 163.408356 C 1392.893555 164.66803 1390.008301 166.358826 1387.916504 167.16571 C 1384.666504 168.419403 1381.980347 168.625977 1369.448242 168.585938 C 1355.027466 168.539856 1354.789551 168.565948 1355.168701 170.152618 C 1355.380737 171.040054 1356.589844 177.959946 1357.855591 185.530121 C 1359.121338 193.100296 1360.918823 205.966599 1361.849976 214.121872 C 1362.825195 222.662476 1363.586304 234.430038 1363.644897 241.874695 C 1363.708618 249.973724 1363.357666 256.68512 1362.704956 259.849152 C 1362.13208 262.626343 1360.947754 266.327606 1360.072998 268.074188 C 1359.198242 269.82077 1357.592529 272.19989 1356.504883 273.361115 C 1355.417114 274.522339 1353.157471 276.020477 1351.483521 276.690308 C 1349.80957 277.360107 1346.948853 277.907837 1345.126465 277.907532 C 1343.304199 277.907166 1340.349121 277.18219 1338.559814 276.296478 C 1336.770508 275.410767 1334.38623 273.358276 1333.261597 271.735413 C 1332.137085 270.112549 1330.500122 266.745789 1329.624268 264.253723 C 1328.748413 261.761597 1327.638428 255.96048 1327.157593 251.362289 C 1326.622803 246.246918 1326.471191 237.082413 1326.766846 227.750793 C 1327.032837 219.362625 1327.819946 207.035828 1328.515991 200.357895 C 1329.212158 193.679962 1330.421631 183.809921 1331.203613 178.4245 C 1331.985718 173.039063 1332.577759 168.580566 1332.519287 168.516693 C 1332.46106 168.45285 1330.121948 168.98114 1327.321533 169.690674 C 1323.938721 170.54776 1318.943481 170.981079 1312.43811 170.981781 C 1306.662476 170.982361 1301.275635 170.566711 1299.304199 169.968292 C 1297.466064 169.410339 1294.777588 167.913818 1293.329956 166.642731 C 1291.882202 165.371643 1290.220215 163.184418 1289.636719 161.782227 C 1289.053101 160.380005 1288.600464 157.257996 1288.630859 154.844421 C 1288.666626 152.004089 1289.300903 149.186066 1290.428955 146.855774 C 1291.556519 144.526825 1293.387085 142.450562 1295.613037 140.976105 C 1297.505737 139.722473 1300.567505 138.274628 1302.416992 137.758698 C 1304.266602 137.242706 1308.071045 136.752045 1310.87146 136.668274 C 1313.671875 136.584534 1319.353149 136.784241 1323.496338 137.11203 L 1331.029663 137.708008 Z M 1516.550781 277.848541 C 1514.367065 277.815765 1511.430786 277.37204 1510.025879 276.862488 C 1508.62085 276.352905 1506.269531 274.977112 1504.800781 273.805145 C 1503.065918 272.420898 1501.530762 270.090302 1500.419434 267.153687 C 1499.428833 264.536316 1498.534546 259.95929 1498.295166 256.282166 C 1498.005981 251.839249 1498.281128 248.136459 1499.210815 243.957397 C 1500.0448 240.208755 1501.46936 236.605087 1503.035156 234.282776 C 1504.687622 231.831818 1506.833496 229.915939 1509.389038 228.609924 C 1512.490601 227.02475 1514.344604 226.647507 1518.839478 226.686996 C 1523.095337 226.72438 1525.325439 227.182755 1528.174683 228.605713 C 1530.233643 229.633987 1532.900513 231.718292 1534.100952 233.237488 C 1535.301514 234.756699 1536.81958 237.585922 1537.474609 239.524689 C 1538.129517 241.46344 1538.9021 244.988449 1539.191528 247.358047 C 1539.480957 249.727631 1539.324707 254.099197 1538.844238 257.072632 C 1538.363892 260.046082 1537.030029 264.400269 1535.880127 266.748596 C 1534.730347 269.096863 1532.54248 272.049805 1531.018311 273.310669 C 1529.494141 274.571533 1526.508789 276.121765 1524.384033 276.755615 C 1522.259521 277.389526 1518.734497 277.881317 1516.550781 277.848541 Z M 749.219727 275.970795 C 743.83429 276.131927 737.489258 275.923462 735.11969 275.507507 C 732.750122 275.091583 728.052063 273.83725 724.679626 272.720093 C 721.268738 271.59021 715.981323 268.97226 712.763672 266.82019 C 709.582336 264.692383 705.026917 260.764832 702.640503 258.092255 C 700.220398 255.381927 696.731018 250.115356 694.750061 246.183029 C 692.796753 242.305527 690.519348 236.665512 689.689148 233.649658 C 688.858948 230.63382 687.81366 225.179291 687.366272 221.528503 C 686.918945 217.877716 686.563721 212.237701 686.577087 208.995132 C 686.590332 205.752579 686.935547 200.455811 687.344177 197.224548 C 687.752808 193.993286 688.677673 188.882034 689.399536 185.86618 C 690.121338 182.850342 691.848816 177.673904 693.238342 174.363022 C 694.627869 171.052124 697.398071 165.886292 699.394409 162.883392 C 701.390686 159.880524 705.142944 155.461914 707.732666 153.06427 C 710.322388 150.666626 714.812012 147.308167 717.709595 145.600952 C 720.607239 143.893768 725.123657 141.783783 727.746155 140.912048 C 730.368652 140.040314 735.753479 138.911682 739.712463 138.403961 C 745.251282 137.693634 748.817139 137.695374 755.180908 138.411438 C 759.729614 138.923279 765.453796 139.965332 767.901489 140.727142 C 770.349121 141.488922 774.819214 143.408813 777.8349 144.993561 C 780.850647 146.578278 785.470459 149.616394 788.101013 151.744934 C 790.731689 153.873474 794.555725 157.838867 796.598877 160.556885 C 798.642029 163.274872 801.475098 167.804871 802.894531 170.623566 C 804.314026 173.44223 806.224243 178.024918 807.139526 180.807297 C 808.05481 183.589691 809.319641 189.038696 809.950317 192.916199 C 810.580994 196.793716 811.098389 203.423721 811.100098 207.649536 C 811.101807 211.875351 810.724182 217.867874 810.260986 220.966232 C 809.797729 224.064606 808.703186 229.067139 807.828613 232.082993 C 806.954102 235.098846 805.036682 240.033844 803.567627 243.049698 C 802.098633 246.065536 799.312378 250.648041 797.376038 253.233063 C 795.439636 255.818069 791.655518 259.804932 788.966736 262.092773 C 786.278076 264.380615 781.258179 267.643311 777.811462 269.343201 C 774.364807 271.043121 768.724792 273.163818 765.278137 274.055878 C 761.110291 275.134583 755.731934 275.77594 749.219727 275.970795 Z M 1219.612793 275.986176 C 1210.996094 276.12439 1201.844849 275.911743 1199.276611 275.513641 C 1196.708374 275.11554 1192.654541 274.22998 1190.268311 273.545654 C 1187.881958 272.861389 1184.489868 271.467529 1182.730591 270.448181 C 1180.971191 269.428833 1178.271362 267.19989 1176.731201 265.494995 C 1174.73938 263.290375 1173.670898 261.144104 1173.031372 258.06311 C 1172.380127 254.926407 1172.363525 252.87149 1172.970825 250.616089 C 1173.475708 248.741196 1174.892578 246.550262 1176.530029 245.112549 C 1178.026245 243.798813 1180.65564 242.345566 1182.373169 241.883102 C 1184.463135 241.320328 1187.380981 241.279724 1191.195923 241.760269 C 1194.331055 242.155182 1200.949951 243.311859 1205.904419 244.330658 C 1212.445923 245.675766 1217.379761 246.171875 1223.921143 246.142288 C 1231.598877 246.107559 1233.540283 245.831558 1237.064209 244.273804 C 1239.369873 243.254547 1241.951172 241.389465 1242.899658 240.057434 C 1244.018921 238.485535 1244.695801 236.178131 1244.879028 233.309219 C 1245.09375 229.950134 1244.795288 228.37265 1243.578491 226.43541 C 1242.709961 225.052567 1240.658081 223.236877 1239.018677 222.400543 C 1237.379272 221.564194 1233.223633 220.312592 1229.783813 219.619186 C 1226.343994 218.925766 1219.508667 217.835938 1214.59436 217.197327 C 1209.680054 216.558701 1203.334961 215.466064 1200.494263 214.769241 C 1197.653564 214.072403 1193.145142 212.474503 1190.475342 211.218353 C 1187.805664 209.962189 1184.10437 207.414948 1182.250366 205.557816 C 1180.396362 203.700668 1178.061279 200.536575 1177.061279 198.526489 C 1176.061157 196.516403 1174.866577 192.599854 1174.406494 189.823044 C 1173.946289 187.046249 1173.753418 181.494995 1173.977783 177.486893 C 1174.247925 172.661331 1174.985718 168.611694 1176.161865 165.499451 C 1177.138916 162.914459 1179.061157 159.036926 1180.433716 156.882751 C 1181.806274 154.728577 1185.039795 151.015747 1187.619385 148.63205 C 1190.198975 146.248291 1194.767334 143.006409 1197.771484 141.427826 C 1200.775513 139.849213 1205.861206 137.851196 1209.07312 136.987762 C 1212.284912 136.124298 1217.670166 135.048065 1221.040405 134.5961 C 1224.410522 134.144165 1230.931763 133.786652 1235.532104 133.801697 C 1240.132324 133.816711 1246.615601 134.313934 1249.939331 134.906586 C 1253.263062 135.499237 1257.900391 136.862183 1260.244507 137.935333 C 1262.588501 139.008484 1265.885498 141.307587 1267.571167 143.044495 C 1269.256714 144.781372 1271.100098 147.608978 1271.667358 149.328064 C 1272.24353 151.073669 1272.534424 154.165466 1272.326416 156.330658 C 1272.116211 158.51767 1271.223389 161.23349 1270.277954 162.561127 C 1269.356323 163.85556 1267.396362 165.486847 1265.922485 166.186218 C 1264.203491 167.001953 1261.179321 167.45694 1257.486206 167.455414 C 1254.320068 167.454102 1248.02832 166.732452 1243.504639 165.851746 C 1238.980835 164.971039 1232.107056 164.183136 1228.229492 164.10083 C 1224.352051 164.018585 1219.220825 164.397766 1216.826782 164.943481 C 1214.17981 165.546875 1211.297607 166.905457 1209.471924 168.410309 C 1207.820679 169.771362 1205.779785 172.444824 1204.936401 174.351334 C 1203.764771 176.999771 1203.530518 178.667572 1203.943115 181.419327 C 1204.346802 184.111237 1205.21228 185.749985 1207.369629 187.907303 C 1209.240967 189.77858 1211.763672 191.247116 1214.542725 192.082993 C 1216.900391 192.792114 1223.411987 194.076126 1229.012817 194.93634 C 1234.61377 195.79657 1242.090088 197.182068 1245.626831 198.015198 C 1249.163696 198.848358 1254.31189 200.552231 1257.067383 201.80162 C 1259.822754 203.050995 1263.588379 205.438431 1265.435303 207.10704 C 1267.282227 208.77565 1269.566895 211.376587 1270.512207 212.886902 C 1271.457397 214.397232 1272.83667 217.395447 1273.576904 219.549622 C 1274.317383 221.703796 1275.126709 226.463608 1275.37561 230.126984 C 1275.641357 234.037949 1275.429077 239.153793 1274.86145 242.519165 C 1274.300293 245.846069 1272.760742 250.517365 1271.191772 253.653458 C 1269.343994 257.346863 1267.076904 260.320313 1264.025879 263.051575 C 1261.571289 265.248962 1257.086914 268.243225 1254.060547 269.705444 C 1251.034302 271.167664 1245.570557 273.122498 1241.918823 274.049469 C 1236.464355 275.434113 1232.483643 275.779724 1219.612793 275.986176 Z M 1444.753784 275.935486 C 1442.815186 276.149902 1439.792358 275.830811 1437.871338 275.208832 C 1435.987183 274.598877 1433.464111 273.159363 1432.264282 272.01001 C 1431.064575 270.860596 1429.146606 267.833435 1428.002075 265.28299 C 1426.857422 262.732544 1425.23584 257.039185 1424.398682 252.631088 C 1423.561401 248.222992 1422.008423 237.650681 1420.947388 229.13707 C 1419.886353 220.623459 1418.567261 207.404663 1418.015869 199.761978 C 1417.4646 192.119293 1417.013428 180.578674 1417.013428 174.11615 C 1417.013428 167.653625 1417.422729 159.193604 1417.922852 155.316101 C 1418.422974 151.438568 1419.622681 146.151062 1420.588867 143.56604 C 1421.587402 140.894196 1423.562134 137.642303 1425.164795 136.030121 C 1427.10144 134.082306 1428.995117 133.023407 1431.212036 132.648895 C 1433.398804 132.279419 1435.34021 132.479828 1437.232178 133.270386 C 1438.776978 133.915863 1441.106445 135.930481 1442.445923 137.779572 C 1443.777588 139.617889 1445.535156 143.434387 1446.351563 146.260681 C 1447.167969 149.086975 1448.045654 152.368774 1448.302124 153.553589 C 1448.558594 154.738403 1449.026123 155.697266 1449.340942 155.684479 C 1449.655884 155.671661 1451.147217 153.507141 1452.655273 150.87442 C 1454.163208 148.241699 1457.260864 144.223419 1459.53894 141.944916 C 1461.817139 139.666382 1465.213745 137.060211 1467.086914 136.153442 C 1468.960083 135.246643 1472.498291 134.178314 1474.949585 133.779358 C 1477.690796 133.333191 1480.886475 133.334595 1483.250732 133.782959 C 1485.36499 134.183929 1488.456177 135.206512 1490.119995 136.055359 C 1491.783936 136.904205 1494.310059 138.925293 1495.733643 140.546631 C 1497.157227 142.167999 1499.135742 145.273132 1500.130371 147.446991 C 1501.125122 149.620819 1502.463257 153.690674 1503.104248 156.491089 C 1503.745239 159.291534 1504.493652 164.579041 1504.767334 168.241119 C 1505.041138 171.903214 1504.885376 178.770889 1504.421143 183.502594 C 1503.957031 188.234314 1503.061279 193.874329 1502.430542 196.035965 C 1501.799805 198.197617 1500.34082 201.41658 1499.188354 203.189224 C 1498.035889 204.961868 1495.660156 207.341263 1493.909058 208.476746 C 1491.421753 210.089554 1489.75415 210.54126 1486.287476 210.54126 C 1483.091797 210.54126 1481.312744 210.118744 1479.930542 209.031509 C 1478.875 208.201141 1477.374146 206.108887 1476.595459 204.38208 C 1475.412964 201.759827 1475.160156 198.878082 1475.061279 186.895935 C 1474.963013 174.972824 1474.715332 172.127472 1473.595337 170.051178 C 1472.854004 168.677124 1471.462036 167.002747 1470.502075 166.330353 C 1469.542114 165.657959 1467.513306 165.1091 1465.993408 165.110718 C 1464.473755 165.112335 1462.172607 165.758667 1460.879883 166.547028 C 1459.587158 167.335358 1457.49585 169.879395 1456.232666 172.200455 C 1454.96936 174.521484 1453.476929 178.369537 1452.916138 180.751694 C 1452.355225 183.133835 1451.890869 188.300369 1451.884155 192.232895 C 1451.876343 196.737564 1453.065552 207.17099 1455.098145 220.432983 C 1457.509644 236.166779 1458.338501 243.955933 1458.380249 251.274719 C 1458.411255 256.691711 1458.020386 262.500977 1457.505615 264.277283 C 1456.993896 266.043274 1455.780151 268.667969 1454.808472 270.109924 C 1453.83667 271.551941 1451.95459 273.366547 1450.626221 274.142395 C 1449.297729 274.918274 1446.655151 275.725159 1444.753784 275.935486 Z M 1742.489502 276.133301 C 1736.890869 276.355164 1735.142334 276.106384 1731.503784 274.570313 C 1729.123779 273.565552 1725.586792 271.649719 1723.643921 270.312927 C 1721.700806 268.976074 1717.688965 265.314697 1714.728516 262.176453 C 1711.767944 259.038208 1707.274658 253.274612 1704.743164 249.368454 C 1702.21167 245.462296 1698.236572 238.552048 1695.909668 234.012344 C 1693.582764 229.472626 1690.080444 221.855453 1688.126709 217.085281 C 1686.172974 212.315079 1683.31189 204.925598 1681.768921 200.664215 C 1680.225708 196.402817 1677.71875 188.509949 1676.197876 183.124512 C 1674.67688 177.739075 1672.385132 168.397797 1671.105225 162.366119 C 1669.464966 154.636871 1668.643677 148.161957 1668.32312 140.432709 C 1668.025391 133.252167 1668.189819 127.927673 1668.799316 125.010132 C 1669.311279 122.559418 1670.50293 119.419312 1671.447266 118.032135 C 1672.391602 116.644989 1674.1073 114.811493 1675.260132 113.957764 C 1676.413086 113.10376 1679.12085 112.235962 1681.279541 112.028534 C 1684.260864 111.742035 1686.041748 112.057404 1688.694458 113.341583 C 1690.710815 114.317627 1692.995728 116.260529 1694.103149 117.94046 C 1695.157837 119.540344 1696.922119 123.140564 1698.023926 125.94101 C 1699.125854 128.741425 1701.324463 136.143951 1702.90979 142.391052 C 1704.495117 148.638153 1706.971069 157.626953 1708.412109 162.366119 C 1709.853027 167.105286 1712.672241 175.741577 1714.677246 181.557831 C 1716.682251 187.374115 1719.848022 196.010376 1721.712646 200.749557 C 1723.577026 205.488754 1726.830688 213.243759 1728.942871 217.982956 C 1731.055054 222.722137 1735.017212 230.917786 1737.747803 236.195511 C 1740.478271 241.473236 1742.955566 245.791367 1743.25293 245.791367 C 1743.550415 245.791367 1744.921143 242.178223 1746.299072 237.762177 C 1747.677002 233.34613 1750.19873 224.172028 1751.903076 217.375305 C 1753.607178 210.578583 1755.87085 200.179794 1756.933105 194.266907 C 1757.995483 188.354004 1759.386963 179.462418 1760.025513 174.507813 C 1760.66394 169.553223 1761.566772 160.211945 1762.03186 153.74942 C 1762.496948 147.286896 1763.232666 138.474365 1763.666992 134.166016 C 1764.101196 129.857666 1765.037598 124.257568 1765.747925 121.721375 C 1766.609009 118.646942 1767.974121 116.128601 1769.843628 114.165222 C 1771.626953 112.292542 1773.910889 110.880829 1776.117188 110.28775 C 1778.076904 109.760925 1781.07373 109.578094 1783.004395 109.867645 C 1785.192749 110.195801 1787.414917 111.251648 1789.181274 112.802551 C 1790.69873 114.134857 1792.787109 116.896179 1793.822266 118.938843 C 1794.8573 120.981506 1796.329468 125.772003 1797.09375 129.584381 C 1798.085205 134.530731 1798.485352 140.217926 1798.490601 149.441071 C 1798.495117 157.245819 1797.939331 166.822052 1797.087769 173.614136 C 1796.312134 179.800522 1794.807373 189.141815 1793.744019 194.372513 C 1792.680542 199.603241 1790.965576 207.05542 1789.932861 210.932922 C 1788.900269 214.81044 1786.765991 221.860458 1785.189941 226.59964 C 1783.614014 231.338821 1780.595703 238.85849 1778.482666 243.309998 C 1776.369629 247.761505 1773.07312 253.754028 1771.156982 256.626709 C 1769.240967 259.49939 1765.665649 263.850159 1763.211914 266.295166 C 1760.758179 268.740112 1756.589966 271.894531 1753.949219 273.304993 C 1749.813721 275.513733 1748.224365 275.906006 1742.489502 276.133301 Z M 851.445068 275.483093 C 850.152527 275.446655 847.972412 275.09201 846.600281 274.694977 C 845.228149 274.297974 843.049316 272.916901 841.758362 271.625946 C 840.467407 270.334961 838.690186 267.351776 837.809021 264.996613 C 836.927795 262.641449 835.836304 257.621155 835.383484 253.840439 C 834.930603 250.059692 834.2276 238.136566 833.821289 227.344589 C 833.36261 215.164307 833.358643 201.445221 833.810669 191.169998 C 834.211182 182.065948 834.913208 170.937256 835.370667 166.439575 C 835.828186 161.941895 836.733337 156.189148 837.38208 153.655701 C 838.030823 151.122223 839.521667 147.126404 840.695007 144.776062 C 841.868347 142.42572 843.771484 139.820862 844.924194 138.987518 C 846.076843 138.154144 848.720642 137.325623 850.799194 137.146362 C 853.675354 136.898346 855.199463 137.210236 857.177551 138.45166 C 858.678772 139.393799 860.393188 141.480286 861.236267 143.391113 C 862.039063 145.210693 863.108765 149.078796 863.613403 151.986908 C 864.118042 154.89505 864.803894 157.274445 865.137573 157.274445 C 865.471252 157.274445 867.539429 154.814026 869.733521 151.806885 C 871.990662 148.713348 875.792908 144.815369 878.49054 142.829498 C 881.197571 140.8367 885.534119 138.58667 888.523438 137.623901 C 892.91095 136.210815 895.090698 135.985809 901.60022 136.273987 C 907.510132 136.535614 910.420349 137.062836 913.554199 138.439697 C 915.832458 139.440643 918.962952 141.266022 920.510803 142.496124 C 922.058655 143.726196 924.600891 146.443512 926.160217 148.534576 C 927.719482 150.625641 929.876526 154.679047 930.953613 157.542114 C 932.030701 160.405182 933.088196 162.733032 933.30365 162.715118 C 933.519043 162.697174 934.929077 160.723511 936.436951 158.329193 C 937.944885 155.934875 941.285278 152.019043 943.860107 149.62735 C 946.545532 147.132874 950.887451 144.172028 954.043457 142.683075 C 957.134338 141.224884 962.006409 139.711823 965.161194 139.230377 C 969.176575 138.617615 972.525208 138.611145 976.911255 139.207794 C 981.059814 139.772095 984.860474 140.931824 988.652588 142.790497 C 992.507996 144.680206 995.50647 146.902893 998.250427 149.905212 C 1000.445251 152.306732 1003.485168 156.858093 1005.005615 160.019318 C 1006.526123 163.180573 1008.552124 169.209167 1009.507874 173.416199 C 1011.025208 180.095459 1011.245544 183.306473 1011.245544 198.740814 C 1011.245544 209.960312 1010.739319 221.423264 1009.859619 230.124649 C 1009.097351 237.664261 1007.755188 247.358047 1006.877014 251.666382 C 1005.998901 255.974731 1004.40033 261.438507 1003.324707 263.808105 C 1002.249084 266.177673 1000.274658 269.248474 998.937073 270.632019 C 997.599487 272.015625 995.362183 273.690002 993.965271 274.352875 C 992.568298 275.015747 989.594299 275.558105 987.356262 275.558105 C 985.057312 275.558105 982.377502 275.020752 981.195923 274.322815 C 980.045715 273.643372 978.321411 271.892517 977.363953 270.432007 C 976.406616 268.971497 975.275024 266.266754 974.849365 264.421448 C 974.423645 262.576172 974.066833 258.422668 974.056396 255.191391 C 974.045959 251.960144 974.757202 244.91011 975.637024 239.524689 C 976.516785 234.139252 977.940674 224.974228 978.801147 219.157959 C 979.66156 213.34169 980.581299 204.628174 980.84491 199.794601 C 981.216125 192.987259 981.032837 189.825668 980.031677 185.768692 C 979.320801 182.888016 978.121826 179.477631 977.36731 178.190002 C 976.612793 176.902405 974.660461 174.769913 973.028809 173.451141 C 970.545532 171.444061 969.217957 170.999573 964.881592 170.72348 C 960.756409 170.460815 959.015686 170.726593 956.33667 172.028152 C 954.442871 172.948242 951.608948 175.387436 949.85321 177.608627 C 948.137695 179.778915 946.043152 183.40593 945.198608 185.668732 C 944.354126 187.931503 943.099609 192.602875 942.410828 196.049545 C 941.722046 199.496216 940.806641 208.837509 940.376587 216.807953 C 939.946594 224.778397 939.228149 235.743973 938.78009 241.175903 C 938.332031 246.607849 937.249512 253.657867 936.37439 256.842621 C 935.499268 260.027374 933.953064 263.899872 932.938354 265.448181 C 931.923645 266.99646 929.863037 268.847107 928.359314 269.560669 C 926.85553 270.274261 923.969177 270.858093 921.945251 270.858093 C 919.921326 270.858093 917.054443 270.283508 915.574402 269.581177 C 913.994263 268.83136 912.076477 266.927216 910.928467 264.968262 C 909.612244 262.722351 908.701294 259.492126 908.140625 255.082657 C 907.647644 251.20546 907.400879 237.261276 907.535767 220.907867 C 907.692139 201.966415 907.459473 191.178009 906.795654 186.587097 C 906.263245 182.90451 905.11853 177.996414 904.251953 175.680237 C 903.323547 173.198746 901.57135 170.49881 899.986206 169.107056 C 898.506714 167.807983 895.879761 166.32074 894.14856 165.802094 C 891.696838 165.067535 890.07135 165.067108 886.795959 165.800079 C 884.049805 166.414642 881.479858 167.6922 879.388428 169.482361 C 877.556641 171.050247 875.150208 174.327454 873.766113 177.138885 C 872.435242 179.8423 870.847656 183.969376 870.23822 186.310196 C 869.628723 188.651001 868.756348 194.544189 868.299561 199.406158 C 867.795471 204.771652 867.676575 214.955276 867.99707 225.315964 C 868.321655 235.809433 868.196167 246.135162 867.671265 252.117767 C 867.20166 257.470337 866.25177 263.434692 865.560425 265.371826 C 864.86908 267.30899 863.188416 270.044312 861.825684 271.450378 C 860.462891 272.856384 858.098511 274.353882 856.571472 274.778076 C 855.044434 275.202301 852.737549 275.519562 851.445068 275.483093 Z M 750.786377 244.739944 C 755.735107 244.551804 758.408508 244.024796 761.198242 242.687454 C 763.262695 241.697815 766.473755 239.40889 768.333984 237.600983 C 770.195068 235.792236 773.015015 231.685806 774.604126 228.47049 C 776.349731 224.938431 777.931702 220.159424 778.603638 216.388367 C 779.214966 212.957047 779.715149 207.682083 779.715149 204.666245 C 779.715149 201.650391 779.214966 196.375443 778.603638 192.944122 C 777.935059 189.191589 776.351379 184.397263 774.629639 180.913651 C 773.055359 177.728195 770.359375 173.714035 768.638611 171.993271 C 766.917847 170.272491 763.552185 167.968323 761.159363 166.872864 C 758.430115 165.623383 754.839722 164.740234 751.52478 164.503052 C 747.494812 164.214722 744.891907 164.534668 740.5578 165.851105 C 735.706848 167.324554 734.232422 168.227875 730.485901 172.021698 C 728.07196 174.466156 725.13092 178.470566 723.950256 180.920395 C 722.769592 183.370239 721.240173 187.776489 720.551453 190.712097 C 719.803528 193.900238 719.299316 199.519363 719.299316 204.666245 C 719.299316 209.813126 719.803528 215.432251 720.551453 218.620392 C 721.240173 221.556 722.745789 225.882019 723.897339 228.23378 C 725.048828 230.585526 727.217224 233.942215 728.715881 235.693054 C 730.214539 237.443893 732.770874 239.756699 734.396667 240.832581 C 736.022461 241.908463 738.877136 243.284714 740.740356 243.8909 C 742.905579 244.595352 746.530823 244.901718 750.786377 244.739944 Z M 1098.827637 243.113632 C 1101.608887 242.920975 1105.017334 241.99556 1107.600464 240.73175 C 1110.23999 239.440323 1112.722412 237.444366 1114.217407 235.411453 C 1115.533447 233.622025 1117.318115 230.265778 1118.18335 227.953125 C 1119.048584 225.640457 1120.322876 220.512329 1121.014893 216.557266 C 1121.941284 211.263489 1122.144775 206.989532 1121.786011 200.357895 C 1121.517944 195.403305 1120.77356 189.139648 1120.131958 186.43869 C 1119.490356 183.737717 1118.05957 179.74028 1116.952393 177.555481 C 1115.845337 175.370712 1113.522827 172.046219 1111.791382 170.167786 C 1110.059814 168.289337 1107.150513 166.029877 1105.326294 165.146759 C 1103.0177 164.029144 1100.477539 163.546356 1096.96936 163.558319 C 1093.778931 163.569214 1090.779175 164.102081 1088.795776 165.010223 C 1087.072388 165.799316 1084.071289 168.170929 1082.126465 170.280548 C 1080.181641 172.390121 1077.428101 176.658813 1076.007446 179.766479 C 1074.586792 182.874176 1072.875122 188.408386 1072.203735 192.064743 C 1071.332886 196.806976 1071.091553 201.586929 1071.36145 208.739471 C 1071.636353 216.028473 1072.199219 220.190308 1073.422729 223.981552 C 1074.348389 226.849976 1076.278442 230.903732 1077.71167 232.989914 C 1079.14502 235.076111 1081.757324 237.799927 1083.516724 239.042831 C 1085.276123 240.285721 1088.41748 241.781006 1090.497437 242.365662 C 1092.577393 242.950333 1096.325928 243.286911 1098.827637 243.113632 Z"/>
</svg>
