<svg xmlns="http://www.w3.org/2000/svg" width="1799" height="427"><g fill-rule="evenodd"><path fill="#fff" d="M105.24 11.14c.4.59 12.43 13.4 52.75 55.9l-67.22.08c-42.5.06-68.38.28-70.4.6a27.57 27.57 0 0 0-6.48 2.12 26.02 26.02 0 0 0-6.17 4.49A23.68 23.68 0 0 0 3 81.09c-1.86 3.9-1.86 3.9-2.03 102.83-.11 69.23 0 99.76.38 101.67a26.2 26.2 0 0 0 1.82 5.36c.7 1.44 2.39 3.84 3.74 5.32a30.77 30.77 0 0 0 4.96 4.3c1.37.87 3.78 2 5.35 2.5 2.75.89 8.47.92 152.14.82 149.28-.1 149.28-.1 153.17-1.95a23.8 23.8 0 0 0 6.8-4.77c1.6-1.6 3.46-4 4.15-5.37a37.36 37.36 0 0 0 2.05-5.17c.73-2.45.8-12.03.8-100.7 0-86.58-.08-98.34-.76-100.94a27.84 27.84 0 0 0-2.31-5.65 29.83 29.83 0 0 0-4.16-5.27 26.49 26.49 0 0 0-5.44-4 30.83 30.83 0 0 0-5.66-2.1c-2.31-.54-15.73-.67-71.02-.68h-68.18l26.06-27.44c14.33-15.09 26.45-28.04 26.93-28.78.5-.78.87-2.31.87-3.6 0-1.36-.4-2.88-1-3.86a9.34 9.34 0 0 0-2.6-2.62c-.93-.56-2.52-.99-3.68-.99-1.32 0-2.6.4-3.62 1.12-.87.62-10.54 10.6-21.5 22.2a28963.46 28963.46 0 0 1-25.82 27.3l-5.91 6.23-26.1-27.55C128.09 14.14 115.7 1.32 114.93.8c-1.07-.69-2.04-.87-3.83-.7a9.08 9.08 0 0 0-3.71 1.19c-.72.52-1.8 1.92-2.38 3.1-.75 1.52-.98 2.67-.78 3.92.16.97.62 2.24 1.02 2.83Zm121.68 267.6c-3.99 1.12-3.99 1.12-84.98 1.2-44.55.03-82.62-.13-84.6-.36-2-.24-5.36-1.01-7.48-1.72a46.72 46.72 0 0 1-7.36-3.34 45 45 0 0 1-7.27-5.82 37.7 37.7 0 0 1-5.72-7.27 43.05 43.05 0 0 1-3.07-7.4l-.2-.7c-.94-3.48-.94-7.2-.93-67.35 0-55.2.11-64.55.76-67.28a37.1 37.1 0 0 1 2.5-6.67 48.12 48.12 0 0 1 4-6.42 39.05 39.05 0 0 1 5.31-5.4 45.3 45.3 0 0 1 6.62-4.29c1.97-1 5.13-2.3 7.02-2.88 3.44-1.07 3.44-1.07 85.68-1.25 70.12-.15 82.9-.07 86.73.55 2.47.4 5.9 1.29 7.61 1.99 1.73.7 4.41 2.02 5.98 2.94 1.56.91 4.67 3.48 6.9 5.69 3.4 3.35 4.45 4.8 6.34 8.72a42.64 42.64 0 0 1 2.92 7.94c.52 2.56.65 16.34.65 66.54 0 58.26-.06 63.57-.85 66.7a43.1 43.1 0 0 1-2.4 6.6 39.7 39.7 0 0 1-4.02 6.33 44.75 44.75 0 0 1-5.7 5.7 44.12 44.12 0 0 1-6.84 4.36c-1.99.98-5.4 2.28-7.6 2.9Zm78.39-79.35a33.98 33.98 0 0 1-4.14-.73c-.76-.22-2.1-.73-2.97-1.12a24.9 24.9 0 0 1-3.35-1.95c-.96-.68-2.51-2-3.43-2.95-.93-.94-2.67-3.1-3.88-4.8-1.75-2.48-2.31-3.12-2.8-3.23a2.27 2.27 0 0 1-.68-.21c-.03-.05-.02-.57.03-1.15.08-.95-.07-1.4-1.36-3.97-.8-1.6-2-3.84-2.69-4.99a52.45 52.45 0 0 0-3.11-4.49c-1.04-1.32-3.21-3.86-4.84-5.64-2.54-2.8-2.96-3.36-3.02-4.05-.05-.56.05-1 .3-1.41.24-.4.7-.7 1.31-.87.52-.15 2.2-.47 3.73-.71 1.53-.24 3.82-.56 5.1-.7 1.28-.15 3.5-.34 4.95-.42 1.44-.08 3.82-.14 5.29-.15 1.47 0 4.34.15 6.38.33 2.85.25 4.43.5 6.88 1.09 1.74.41 4.08 1.1 5.19 1.52 1.1.42 2.94 1.26 4.08 1.85 1.13.6 2.23 1.07 2.44 1.05.22-.02.37.08.35.23-.03.14.78.97 1.79 1.83 1 .87 2.46 2.4 3.24 3.39.78 1 1.8 2.52 2.26 3.4.46.87 1.1 2.36 1.43 3.32.32.95.73 2.63.9 3.72.19 1.1.32 2.84.3 3.88a24.17 24.17 0 0 1-1.73 8.02c-.39.9-1.36 2.55-2.15 3.67a11.63 11.63 0 0 1-3.3 3.4 16.6 16.6 0 0 1-3.35 1.9c-.83.3-2.35.67-3.39.84-1.04.16-1.95.34-2.01.4-.07.05-.32.08-.56.06-.23-.01-1.67-.18-3.2-.36Zm12.46-73.6c.53-.58 1.66-2.1 2.5-3.38l1.75-2.7c.12-.2.2-.44.18-.52-.02-.09.23-.98.54-1.98.32-1 .66-2.54.76-3.41.1-.9.01-2.56-.2-3.85a11.63 11.63 0 0 0-1.57-4.46 26.42 26.42 0 0 0-2.33-3.57A24.17 24.17 0 0 0 313 96.8a25.55 25.55 0 0 0-3.6-1.47c-1.06-.32-2.74-.7-3.74-.84s-2.62-.23-3.61-.2c-.99.02-2.81.25-4.05.5-1.23.25-3.25.88-4.47 1.4-1.23.51-2.33.86-2.44.78-.12-.08-.28 0-.36.2-.08.2-1 .98-2.03 1.73-1.04.75-2.6 2.02-3.47 2.83-.88.8-2.53 2.59-3.68 3.96a41.36 41.36 0 0 0-4.04 5.68 87.22 87.22 0 0 0-3.14 5.56c-.65 1.32-1.65 3.48-2.22 4.8-.57 1.33-1.4 3.4-1.84 4.61-.44 1.21-1.18 3.41-1.65 4.89a47.06 47.06 0 0 0-1.02 3.65c-.12.63-.05 1.17.2 1.56.26.42.6.69 1.12.9.65.25 1.34.13 4.97-.9 2.33-.66 5.57-1.48 7.21-1.81 1.65-.34 4.08-.7 5.41-.8 1.33-.1 3.88-.17 5.66-.18 2.88 0 3.35.06 4.16.56.5.3.96.55 1.02.54.05 0 .27-.24.49-.5.32-.4 1.14-.62 4.14-1.09 2.06-.32 4.77-.91 6.03-1.32 1.25-.41 3.12-1.2 4.16-1.76a24.9 24.9 0 0 0 3.24-2.13c.75-.61 1.8-1.58 2.33-2.16Z"/><g fill="#fff"><path d="m78.8 131.44-24.24-42h48.5ZM199.82 131.44l-24.25-42h48.5Z"/></g><path fill="#ff6ef5" d="M140.47 426.98a158.7 158.7 0 0 1-.9 0c-5.77-.17-10.55-.62-13.1-1.23-2.32-.56-4.78-1.37-5.46-1.8a20.74 20.74 0 0 0-3.72-1.61 13.68 13.68 0 0 1-3.9-2.04c-.78-.68-2-1.4-2.72-1.62a32.18 32.18 0 0 1-4.8-2.53 80.23 80.23 0 0 1-8.68-6.76 121.39 121.39 0 0 1-8.9-8.88 66.36 66.36 0 0 1-5.8-7.74 317.23 317.23 0 0 0-4.02-6.56 90.89 90.89 0 0 1-4-7.26c-1.13-2.3-3.02-6.6-4.21-9.57a144.3 144.3 0 0 1-3.98-11.79c-1-3.5-2.39-9.76-3.1-13.9-1.2-6.92-1.31-8.98-1.52-26.35-.23-18.83-.09-93.87.59-97.13a57.36 57.36 0 0 1 2.3-7.72 59.56 59.56 0 0 1 3.63-7.4 59.26 59.26 0 0 1 4.55-6.41 71.23 71.23 0 0 1 5.5-5.66c1.71-1.54 4.5-3.64 6.2-4.68 1.71-1.03 5.12-2.7 7.57-3.72a52.71 52.71 0 0 1 8.93-2.66c2.45-.44 6.92-.8 9.92-.8s7.46.36 9.91.8c2.46.45 6.44 1.63 8.85 2.63 2.4 1 5.53 2.5 6.94 3.33 1.15.67 2.56 1.58 3.47 2.23.9-.65 2.32-1.56 3.47-2.23 1.4-.83 4.53-2.32 6.94-3.33 2.4-1 6.39-2.18 8.84-2.63 2.46-.44 6.92-.8 9.92-.8s7.46.36 9.92.8c2.45.45 6.47 1.64 8.92 2.66a69.05 69.05 0 0 1 7.57 3.72c1.7 1.04 4.5 3.14 6.2 4.68a71.24 71.24 0 0 1 5.51 5.66 59.27 59.27 0 0 1 4.54 6.4 59.56 59.56 0 0 1 3.64 7.41c.83 2.13 1.87 5.6 2.3 7.72.67 3.26.82 78.3.6 97.13-.22 17.37-.34 19.43-1.53 26.36-.71 4.13-2.1 10.38-3.1 13.9-1 3.5-2.79 8.8-3.98 11.78a174.53 174.53 0 0 1-4.2 9.57 90.89 90.89 0 0 1-4 7.26 317.2 317.2 0 0 0-4.04 6.56 66.36 66.36 0 0 1-5.79 7.74 121.38 121.38 0 0 1-8.9 8.88 80.22 80.22 0 0 1-8.68 6.76 32.18 32.18 0 0 1-4.8 2.53c-.72.21-1.94.94-2.73 1.62-.78.67-2.53 1.6-3.9 2.04a20.74 20.74 0 0 0-3.71 1.6c-.69.44-3.14 1.25-5.46 1.8-2.55.62-7.33 1.07-13.1 1.24Z"/><path fill="#fff" d="M135.8 349.23c0 2.65 1.72 4.79 3.84 4.79s3.84-2.14 3.84-4.79V233.9c0-2.64-1.72-4.79-3.84-4.79s-3.85 2.15-3.85 4.8Z"/></g><path fill="#fff" fill-rule="evenodd" d="M1061.4 320.96c-1.73-.02-4.25-.5-5.6-1.1a15.22 15.22 0 0 1-4.17-2.9 28.3 28.3 0 0 1-3.54-5.37c-1-1.94-2.38-6-3.08-9-.7-3.02-1.8-10.78-2.42-17.24-.62-6.46-1.5-16.5-1.96-22.33-.46-5.81-1.17-20.97-1.59-33.68-.41-12.7-.57-28.04-.34-34.07.23-6.04.77-16.26 1.2-22.72a307 307 0 0 1 1.9-19.34c.61-4.17 1.89-9.23 2.84-11.25.97-2.08 2.77-4.3 4.14-5.14a12.57 12.57 0 0 1 5.55-1.47c1.72 0 4.08.62 5.23 1.38 1.15.76 2.81 2.3 3.69 3.4a31.5 31.5 0 0 1 3.26 6.26 43 43 0 0 1 2.1 6.8c.23 1.42.66 2.48.96 2.35.29-.12 2.9-2.74 5.78-5.82 3.88-4.14 6.72-6.31 10.91-8.39a53.69 53.69 0 0 1 9.98-3.72c2.37-.51 7.4-.9 11.2-.88 4.7.03 8.68.59 12.53 1.75 3.1.94 7.64 2.91 10.07 4.39a49.61 49.61 0 0 1 8.73 7.32 59.42 59.42 0 0 1 6.67 8.8 77.58 77.58 0 0 1 4.29 9.25 98.99 98.99 0 0 1 3.39 12.53c1.13 5.7 1.48 10.88 1.48 22 0 10.51-.4 16.9-1.44 23.06-.8 4.68-2.5 11.44-3.8 15a65.6 65.6 0 0 1-5.27 11.02 56.44 56.44 0 0 1-7.6 8.82 47.37 47.37 0 0 1-9.21 6.52 50.92 50.92 0 0 1-9.76 3.32c-2.87.6-7.7 1.1-10.7 1.1-3.02 0-7.96-.52-10.97-1.15a44.71 44.71 0 0 1-9.32-3.14 51.28 51.28 0 0 1-7.67-5.2c-2.1-1.76-3.95-3.08-4.08-2.92-.14.17.04 3.12.4 6.57.35 3.44 1.03 11.7 1.5 18.36.62 8.64.63 13.9.04 18.41-.53 3.95-1.65 7.92-3 10.62-1.7 3.4-2.9 4.68-5.66 6.07-1.96 1-4.87 1.75-6.65 1.73Zm529.96-39.45c-2.4.16-5.42-.1-6.71-.58-1.3-.48-3.3-1.75-4.45-2.82-1.15-1.07-2.85-3.7-3.76-5.82-.92-2.13-2.06-6.8-2.54-10.37-.55-4.1-.67-11.52-.34-20.13.28-7.5 1.04-18.68 1.67-24.85.64-6.18 1.7-15.52 2.38-20.76a654.3 654.3 0 0 1 5.95-36.95c.9-4.74 1.8-9.72 2.03-11.06.4-2.45.4-2.45-7.71-.6a154.38 154.38 0 0 1-15.98 2.6c-5.05.5-9.76.5-13.17.02-2.91-.42-6.28-1.26-7.49-1.89-1.2-.62-2.8-2.06-3.54-3.2a14.31 14.31 0 0 1-1.77-4.65c-.23-1.42 0-3.84.5-5.36.5-1.53 2.35-4.08 4.12-5.67 1.76-1.6 5.43-3.9 8.15-5.14 2.72-1.24 7.95-3.11 11.6-4.18a203.5 203.5 0 0 1 14.85-3.5c4.5-.87 13.86-1.97 20.8-2.45 8.98-.62 15.62-.64 22.99-.06 5.7.45 13 1.36 16.23 2.02 3.23.66 8.51 2.53 11.73 4.15 3.88 1.95 6.45 3.83 7.64 5.6 1.28 1.9 1.78 3.8 1.78 6.66 0 2.63-.55 4.89-1.59 6.6-1.04 1.7-3.11 3.31-6.07 4.7-4.19 1.95-5.2 2.09-15.45 2.1-6.03 0-14.63-.31-19.11-.68-8.15-.69-8.15-.69-7.6 5.09.3 3.17 1.22 14.23 2.03 24.57.82 10.34 1.9 27.61 2.41 38.38.51 10.77.71 24.87.45 31.34-.26 6.46-.86 13.5-1.33 15.66-.47 2.16-1.37 5.57-2.01 7.58a28.95 28.95 0 0 1-3.46 6.84 18.81 18.81 0 0 1-5.58 4.84 23.6 23.6 0 0 1-7.65 1.97Zm-1120.48-3.68c-6.54-.05-14.53-.53-17.76-1.08-3.23-.55-8.17-1.7-10.98-2.58-2.81-.87-7.22-2.6-9.8-3.85a91.43 91.43 0 0 1-9.46-5.52 65.55 65.55 0 0 1-9.4-8.29 74.4 74.4 0 0 1-8.05-11.03 87.95 87.95 0 0 1-5.65-12.44c-1.22-3.54-2.79-9.77-3.49-13.84-.75-4.37-1.28-11.85-1.29-18.26 0-5.97.4-13.74.9-17.27.5-3.53 1.63-9.06 2.52-12.3a127.6 127.6 0 0 1 3.63-10.96c1.11-2.8 3.25-7.2 4.76-9.8 1.5-2.58 4.4-6.8 6.44-9.4a63.35 63.35 0 0 1 7.47-7.83c2.07-1.72 5-4.03 6.52-5.12a83.4 83.4 0 0 1 6.3-3.98 74.89 74.89 0 0 1 7.83-3.69c2.37-.93 7.13-2.42 10.57-3.31 4.08-1.06 10.05-1.78 17.1-2.08 6.36-.27 13.79-.1 18.02.43 3.95.48 9.3 1.42 11.88 2.08 2.59.66 7.17 2.42 10.19 3.9a52.12 52.12 0 0 1 9.15 5.9 27.19 27.19 0 0 1 5.77 7.45c1.82 3.71 2.05 5.03 1.8 10.04-.23 4.52-.7 6.37-2.24 8.65-1.19 1.75-3.55 3.68-6.05 4.9-3.28 1.62-5.26 2.03-9.8 2.03-4.83 0-7.05-.51-14.31-3.3a170.73 170.73 0 0 0-13.22-4.52 55.02 55.02 0 0 0-10.97-1.29 66.7 66.7 0 0 0-11.44.96c-2.8.56-7.3 2.04-10 3.3a35.13 35.13 0 0 0-9.07 6.4 40.95 40.95 0 0 0-6.64 9.24 54.42 54.42 0 0 0-3.66 10.58c-.65 3.1-1.16 9.68-1.17 15.11 0 5.58.5 12.17 1.2 15.67a58.36 58.36 0 0 0 3.92 11.65 29.14 29.14 0 0 0 6.68 9.17 43.7 43.7 0 0 0 8.25 5.66 50.37 50.37 0 0 0 8.77 3.16c2.45.57 8.03 1.05 12.4 1.06 4.55 0 11.72-.66 16.84-1.57 4.9-.87 11.64-1.98 14.98-2.47 4.71-.7 7.07-.67 10.46.09 3 .67 5.32 1.83 7.36 3.67a11.62 11.62 0 0 1 3.92 6.58c.72 3.01.72 4.78 0 7.78-.6 2.5-2 5.1-3.94 7.3a31.97 31.97 0 0 1-7.57 5.84 65 65 0 0 1-10.04 4.03 93.34 93.34 0 0 1-11.61 2.42c-3.37.44-11.48.77-18.02.73Zm101.12-.31c-1.83.2-5.02-.1-7.08-.68-2.06-.58-4.58-1.84-5.6-2.8-1.02-.95-2.8-3.82-3.94-6.37-1.14-2.55-2.73-8.08-3.53-12.28-.8-4.2-2-11.87-2.68-17.04-.68-5.17-1.75-15.4-2.4-22.72-.64-7.32-1.53-19.84-1.97-27.8-.45-7.98-.82-21.05-.82-29.05s.38-18.4.84-23.1c.45-4.71 1.53-11.56 2.38-15.22.85-3.66 2.4-8.5 3.43-10.76a43.68 43.68 0 0 1 3.96-6.84c1.15-1.5 4-3.67 6.33-4.8 3.33-1.63 5-2 7.75-1.7 1.92.23 4.37.98 5.45 1.69 1.08.7 2.5 2.12 3.18 3.14.67 1.02 1.78 4.62 2.47 8 1 4.93 1.14 8.62.7 18.7-.3 6.9-1.01 17.65-1.59 23.9-.57 6.25-.9 11.5-.74 11.68.17.18 3.22-2.69 6.77-6.37 3.56-3.68 8.58-8.03 11.16-9.67a59.8 59.8 0 0 1 10.18-4.9c4.38-1.53 7-1.92 12.94-1.9 5.16.02 8.9.5 12.22 1.56 2.63.84 6.81 2.88 9.3 4.53a40 40 0 0 1 7.66 6.97c1.74 2.19 4.51 6.8 6.16 10.24 1.64 3.45 3.87 9.38 4.96 13.17a151.7 151.7 0 0 1 3.36 16.84c.9 6.57 1.38 14.87 1.38 24.43 0 7.98-.45 18.02-1 22.32-.55 4.3-1.74 10.29-2.64 13.31-.9 3.03-2.3 6.81-3.11 8.42a33.1 33.1 0 0 1-3.87 5.62 17.6 17.6 0 0 1-5.85 4.04c-2.28.87-4.8 1.2-7.31.96-2.16-.2-4.87-1.1-6.21-2.06-1.31-.94-3.13-3.24-4.04-5.12-.91-1.89-1.98-6.21-2.37-9.62-.42-3.72-.41-10.57.02-17.13.4-6.02.96-17.82 1.25-26.22.35-10.52.22-16.98-.42-20.75a46.33 46.33 0 0 0-2.76-9.46 26.8 26.8 0 0 0-4.69-6.76 17.2 17.2 0 0 0-6.4-3.77c-2.03-.57-5.32-.8-7.79-.55a25.14 25.14 0 0 0-8.29 2.63 27.65 27.65 0 0 0-6.54 5.13 42.2 42.2 0 0 0-4.59 7.07 56.94 56.94 0 0 0-3.34 8.84c-.7 2.58-1.45 8.93-1.68 14.1-.3 6.86.04 13.12 1.25 23.22.9 7.61 1.65 17.66 1.65 22.33 0 4.67-.4 9.9-.86 11.63a20.06 20.06 0 0 1-2.78 5.68 15.3 15.3 0 0 1-4.22 3.73c-1.26.66-3.8 1.36-5.64 1.56Zm759.03-139.81c.66-15.68 1.36-21.68 2.06-23.91a35.3 35.3 0 0 1 3.36-7.2c1.17-1.8 3.3-3.91 4.71-4.68 1.66-.89 4.16-1.36 6.97-1.32 3.08.04 5 .52 6.47 1.62a17 17 0 0 1 3.66 4.22c1.32 2.24 1.56 4.02 1.53 11.28-.03 6.23-.5 10.19-1.66 14.31-1.43 5.04-1.47 5.66-.35 5.32.7-.22 4.55-.8 8.55-1.3 4.01-.51 10.27-.74 13.92-.51 5 .31 7.68.93 10.89 2.5 2.7 1.32 4.86 3.06 5.91 4.77.92 1.48 1.87 4.63 2.11 7 .32 3.08.06 5.32-.89 7.81a17.33 17.33 0 0 1-3.94 5.79 25.57 25.57 0 0 1-6.41 3.76c-3.25 1.25-5.94 1.46-18.47 1.42-14.42-.05-14.66-.02-14.28 1.56a647.21 647.21 0 0 1 6.68 43.97c.98 8.54 1.74 20.31 1.8 27.75.06 8.1-.3 14.82-.95 17.98a41.19 41.19 0 0 1-2.63 8.22 26.96 26.96 0 0 1-3.57 5.3 16.62 16.62 0 0 1-5.02 3.32 20.48 20.48 0 0 1-6.35 1.22c-1.83 0-4.78-.73-6.57-1.61a16.6 16.6 0 0 1-5.3-4.56 38.19 38.19 0 0 1-3.64-7.49c-.87-2.49-1.98-8.29-2.46-12.89-.54-5.11-.69-14.28-.4-23.6.27-8.4 1.06-20.72 1.76-27.4s1.9-16.55 2.68-21.94a209.9 209.9 0 0 0 1.32-9.9c-.06-.07-2.4.46-5.2 1.17-3.38.86-8.38 1.3-14.88 1.3-5.78 0-11.16-.42-13.14-1.02a19.32 19.32 0 0 1-5.97-3.33 16.29 16.29 0 0 1-3.7-4.86c-.58-1.4-1.03-4.52-1-6.94.04-2.84.67-5.65 1.8-7.98a15 15 0 0 1 5.18-5.88 29.2 29.2 0 0 1 6.8-3.22c1.86-.52 5.66-1 8.46-1.1 2.8-.08 8.48.12 12.63.45l7.53.6Zm185.52 140.14a24.65 24.65 0 0 1-6.52-.99 22.7 22.7 0 0 1-5.23-3.05c-1.73-1.39-3.27-3.72-4.38-6.66-1-2.61-1.89-7.2-2.12-10.87-.3-4.44-.02-8.14.91-12.32.83-3.75 2.26-7.35 3.83-9.68a16.89 16.89 0 0 1 6.35-5.67c3.1-1.59 4.95-1.96 9.45-1.92 4.26.03 6.49.5 9.33 1.92a20.74 20.74 0 0 1 5.93 4.63 25.11 25.11 0 0 1 3.37 6.28 47.75 47.75 0 0 1 1.72 7.84c.3 2.37.13 6.74-.35 9.71a41.58 41.58 0 0 1-2.96 9.68c-1.15 2.35-3.34 5.3-4.86 6.56a22.5 22.5 0 0 1-6.64 3.45 31.32 31.32 0 0 1-7.83 1.09Zm-767.33-1.88c-5.39.16-11.73-.05-14.1-.46a92.42 92.42 0 0 1-10.44-2.79 59 59 0 0 1-11.92-5.9 64.08 64.08 0 0 1-10.12-8.73 65.44 65.44 0 0 1-7.89-11.9 84.47 84.47 0 0 1-5.06-12.54c-.83-3.02-1.88-8.47-2.32-12.12-.45-3.65-.8-9.3-.8-12.53.02-3.25.37-8.54.77-11.78.41-3.23 1.34-8.34 2.06-11.35a90.8 90.8 0 0 1 3.84-11.5 83.26 83.26 0 0 1 6.15-11.49c2-3 5.75-7.42 8.34-9.82a70.32 70.32 0 0 1 9.98-7.46c2.9-1.7 7.41-3.82 10.04-4.69 2.62-.87 8-2 11.96-2.5 5.54-.72 9.1-.71 15.47 0 4.55.51 10.27 1.56 12.72 2.32 2.45.76 6.92 2.68 9.93 4.26a75.68 75.68 0 0 1 10.27 6.75 60.19 60.19 0 0 1 8.5 8.82 80.8 80.8 0 0 1 6.3 10.06 89.95 89.95 0 0 1 4.24 10.19 97.88 97.88 0 0 1 2.81 12.1c.63 3.88 1.15 10.51 1.15 14.74s-.38 10.22-.84 13.32a103 103 0 0 1-2.43 11.11 83.35 83.35 0 0 1-4.26 10.97 76.1 76.1 0 0 1-6.2 10.18 66.4 66.4 0 0 1-8.4 8.86 65.27 65.27 0 0 1-11.16 7.25 79.16 79.16 0 0 1-12.53 4.72c-4.17 1.07-9.55 1.72-16.06 1.91Zm470.4.02c-8.62.13-17.78-.08-20.34-.48a89.04 89.04 0 0 1-9.01-1.96 40.4 40.4 0 0 1-7.54-3.1 30.3 30.3 0 0 1-6-4.96c-2-2.2-3.06-4.35-3.7-7.43-.65-3.13-.67-5.19-.06-7.44.5-1.88 1.92-4.07 3.56-5.5a17.59 17.59 0 0 1 5.84-3.24c2.1-.56 5.01-.6 8.83-.12 3.13.4 9.75 1.55 14.7 2.57a80.16 80.16 0 0 0 18.02 1.81c7.68-.03 9.62-.3 13.14-1.87 2.31-1.02 4.9-2.88 5.84-4.21 1.12-1.57 1.8-3.88 1.98-6.75.21-3.36-.08-4.94-1.3-6.87a13.6 13.6 0 0 0-4.56-4.04c-1.64-.84-5.8-2.09-9.24-2.78-3.44-.7-10.27-1.78-15.19-2.42a164.92 164.92 0 0 1-14.1-2.43c-2.84-.7-7.34-2.3-10.01-3.55a34.86 34.86 0 0 1-8.23-5.66 32.83 32.83 0 0 1-5.19-7.03c-1-2.01-2.2-5.93-2.65-8.7a69.63 69.63 0 0 1-.43-12.34c.27-4.83 1-8.88 2.18-12 .98-2.58 2.9-6.45 4.27-8.6a52.45 52.45 0 0 1 7.19-8.26 57.41 57.41 0 0 1 10.15-7.2 66.4 66.4 0 0 1 11.3-4.44c3.21-.87 8.6-1.94 11.97-2.4 3.37-.45 9.9-.8 14.5-.79 4.6.02 11.08.51 14.4 1.1 3.32.6 7.96 1.96 10.3 3.04a29.04 29.04 0 0 1 7.33 5.1c1.69 1.74 3.53 4.57 4.1 6.29.57 1.74.86 4.84.66 7-.21 2.19-1.1 4.9-2.05 6.23a13.36 13.36 0 0 1-4.36 3.63c-1.72.81-4.74 1.27-8.43 1.27-3.17 0-9.46-.73-13.99-1.6a109.5 109.5 0 0 0-15.27-1.76c-3.88-.08-9 .3-11.4.84a19.1 19.1 0 0 0-7.36 3.47 19.32 19.32 0 0 0-4.53 5.94 11.02 11.02 0 0 0-1 7.07c.4 2.7 1.27 4.33 3.43 6.49a17.24 17.24 0 0 0 7.17 4.17c2.36.71 8.87 2 14.47 2.86 5.6.86 13.08 2.24 16.62 3.08 3.53.83 8.68 2.53 11.44 3.78a39.03 39.03 0 0 1 8.37 5.3 34.37 34.37 0 0 1 5.07 5.79c.95 1.5 2.33 4.5 3.07 6.66.74 2.15 1.55 6.91 1.8 10.58.26 3.9.05 9.02-.52 12.39-.56 3.33-2.1 8-3.67 11.13a30.52 30.52 0 0 1-7.16 9.4 51.7 51.7 0 0 1-9.97 6.66 77.65 77.65 0 0 1-12.14 4.34c-5.46 1.38-9.44 1.73-22.3 1.94Zm225.13-.05a19.3 19.3 0 0 1-6.88-.73 17.33 17.33 0 0 1-5.6-3.2c-1.2-1.15-3.12-4.18-4.27-6.73-1.14-2.55-2.76-8.24-3.6-12.65a492.5 492.5 0 0 1-3.45-23.5 690.31 690.31 0 0 1-2.93-29.37c-.56-7.64-1-19.18-1-25.64 0-6.47.4-14.93.9-18.8.5-3.88 1.7-9.17 2.67-11.75 1-2.68 2.97-5.93 4.57-7.54 1.94-1.95 3.84-3 6.05-3.38 2.19-.37 4.13-.17 6.02.62 1.55.65 3.88 2.66 5.22 4.51 1.33 1.84 3.09 5.65 3.9 8.48.82 2.83 1.7 6.1 1.95 7.3.26 1.18.73 2.14 1.04 2.12.32 0 1.8-2.17 3.32-4.8 1.5-2.64 4.6-6.66 6.88-8.94 2.28-2.27 5.67-4.88 7.55-5.79a34.5 34.5 0 0 1 7.86-2.37c2.74-.45 5.94-.45 8.3 0 2.11.4 5.2 1.43 6.87 2.28 1.66.84 4.19 2.87 5.61 4.49a33.99 33.99 0 0 1 4.4 6.9c1 2.17 2.33 6.24 2.97 9.04.65 2.8 1.4 8.09 1.67 11.75s.12 10.53-.35 15.26c-.46 4.73-1.36 10.37-1.99 12.54a32.45 32.45 0 0 1-3.24 7.15 21.46 21.46 0 0 1-5.28 5.29c-2.49 1.61-4.16 2.06-7.62 2.06-3.2 0-4.98-.42-6.36-1.5-1.06-.84-2.56-2.93-3.33-4.66-1.19-2.62-1.44-5.5-1.54-17.48-.1-11.93-.34-14.77-1.46-16.85a12.72 12.72 0 0 0-3.1-3.72 9.25 9.25 0 0 0-4.5-1.22c-1.53 0-3.83.65-5.12 1.44-1.3.79-3.38 3.33-4.65 5.65a41.53 41.53 0 0 0-3.31 8.55c-.56 2.38-1.03 7.55-1.04 11.48 0 4.5 1.19 14.94 3.22 28.2 2.41 15.74 3.24 23.53 3.28 30.84.03 5.42-.36 11.23-.87 13a24.97 24.97 0 0 1-2.7 5.84 15.6 15.6 0 0 1-4.18 4.03 17.84 17.84 0 0 1-5.88 1.8Zm297.74.2c-5.6.22-7.35-.03-10.99-1.57-2.38-1-5.91-2.92-7.86-4.26-1.94-1.33-5.95-5-8.91-8.13a108.6 108.6 0 0 1-9.99-12.81 212.1 212.1 0 0 1-8.83-15.36 265.86 265.86 0 0 1-7.78-16.92 518.16 518.16 0 0 1-6.36-16.43 311.72 311.72 0 0 1-5.57-17.54 392.27 392.27 0 0 1-5.1-20.75 124.7 124.7 0 0 1-2.78-21.94c-.3-7.18-.13-12.5.48-15.42.51-2.45 1.7-5.6 2.65-6.98a20.16 20.16 0 0 1 3.81-4.07c1.15-.86 3.86-1.72 6.02-1.93 2.98-.29 4.76.03 7.41 1.31 2.02.98 4.3 2.92 5.41 4.6 1.06 1.6 2.82 5.2 3.92 8s3.3 10.2 4.89 16.45a545.96 545.96 0 0 0 5.5 19.98 582.09 582.09 0 0 0 13.3 38.38c1.87 4.74 5.12 12.5 7.23 17.23a422.9 422.9 0 0 0 8.8 18.22c2.74 5.27 5.22 9.6 5.51 9.6.3 0 1.67-3.62 3.05-8.04a424.16 424.16 0 0 0 10.63-43.5c1.07-5.9 2.46-14.8 3.1-19.75.63-4.96 1.54-14.3 2-20.76.47-6.46 1.2-15.28 1.64-19.58.43-4.31 1.37-9.91 2.08-12.45.86-3.07 2.22-5.6 4.1-7.55a14.06 14.06 0 0 1 6.27-3.88c1.96-.53 4.95-.71 6.88-.42 2.2.33 4.41 1.38 6.18 2.93a24.4 24.4 0 0 1 4.64 6.14c1.04 2.04 2.5 6.83 3.27 10.64 1 4.95 1.4 10.64 1.4 19.86 0 7.8-.55 17.38-1.4 24.17a337.7 337.7 0 0 1-3.35 20.76 350.77 350.77 0 0 1-3.8 16.56 329.6 329.6 0 0 1-4.75 15.67 178.57 178.57 0 0 1-6.7 16.71 130.26 130.26 0 0 1-7.33 13.32 76.12 76.12 0 0 1-7.95 9.67 48.1 48.1 0 0 1-9.26 7c-4.14 2.21-5.73 2.6-11.46 2.83Zm-891.04-.66c-1.3-.03-3.48-.39-4.85-.79a13.83 13.83 0 0 1-4.84-3.06c-1.3-1.3-3.07-4.28-3.95-6.63-.88-2.36-1.97-7.38-2.43-11.16-.45-3.78-1.15-15.7-1.56-26.5-.46-12.18-.46-25.9 0-36.17.4-9.1 1.1-20.23 1.55-24.73.46-4.5 1.36-10.25 2.01-12.78a54 54 0 0 1 3.32-8.88c1.17-2.35 3.07-4.96 4.22-5.8 1.16-.83 3.8-1.65 5.88-1.83 2.88-.25 4.4.06 6.38 1.3 1.5.94 3.21 3.03 4.06 4.94.8 1.82 1.87 5.69 2.37 8.6.5 2.9 1.2 5.28 1.53 5.28.33 0 2.4-2.46 4.6-5.46 2.25-3.1 6.05-7 8.75-8.98 2.7-2 7.04-4.24 10.03-5.2 4.4-1.42 6.57-1.64 13.08-1.36 5.91.27 8.82.8 11.95 2.17 2.28 1 5.41 2.83 6.96 4.06a39.29 39.29 0 0 1 5.65 6.03 44.12 44.12 0 0 1 4.8 9.01c1.07 2.87 2.13 5.2 2.34 5.18.22-.02 1.63-2 3.14-4.4 1.5-2.39 4.85-6.3 7.42-8.7a46.41 46.41 0 0 1 10.18-6.94 47.63 47.63 0 0 1 11.12-3.45c4.02-.61 7.37-.62 11.75-.02 4.15.56 7.95 1.72 11.74 3.58a30.87 30.87 0 0 1 9.6 7.12c2.2 2.4 5.24 6.95 6.76 10.1a76.69 76.69 0 0 1 4.5 13.4c1.52 6.69 1.74 9.9 1.74 25.33 0 11.22-.51 22.68-1.39 31.38-.76 7.54-2.1 17.24-2.98 21.55-.88 4.3-2.48 9.77-3.56 12.14a29.14 29.14 0 0 1-4.38 6.82 21.05 21.05 0 0 1-4.97 3.72c-1.4.67-4.38 1.2-6.61 1.2-2.3 0-4.98-.53-6.16-1.23a14.58 14.58 0 0 1-3.84-3.89 22.26 22.26 0 0 1-2.51-6c-.43-1.85-.78-6-.8-9.24 0-3.23.7-10.28 1.59-15.67.88-5.38 2.3-14.55 3.16-20.36a257.4 257.4 0 0 0 2.04-19.37c.38-6.8.2-9.96-.8-14.02-.72-2.88-1.92-6.3-2.67-7.58a21.99 21.99 0 0 0-4.34-4.74c-2.48-2-3.81-2.45-8.15-2.73-4.12-.26-5.86 0-8.54 1.3-1.9.93-4.73 3.37-6.49 5.59a36.2 36.2 0 0 0-4.65 8.06 83.78 83.78 0 0 0-2.79 10.38c-.69 3.45-1.6 12.79-2.03 20.76-.43 7.97-1.15 18.93-1.6 24.37-.45 5.43-1.53 12.48-2.4 15.66-.88 3.19-2.43 7.06-3.44 8.6a13.5 13.5 0 0 1-4.58 4.12 17.9 17.9 0 0 1-6.41 1.3c-2.03 0-4.9-.58-6.38-1.28-1.58-.75-3.5-2.65-4.64-4.61-1.32-2.25-2.23-5.48-2.79-9.89-.5-3.87-.74-17.82-.6-34.17.15-18.94-.08-29.73-.74-34.32a65.42 65.42 0 0 0-2.55-10.91c-.93-2.48-2.68-5.18-4.26-6.57a18.82 18.82 0 0 0-5.84-3.3c-2.45-.74-4.08-.74-7.35-.01-2.75.61-5.32 1.9-7.41 3.68-1.83 1.57-4.24 4.85-5.62 7.66a59.24 59.24 0 0 0-3.53 9.17c-.61 2.34-1.48 8.23-1.94 13.1-.5 5.36-.62 15.55-.3 25.9.32 10.5.2 20.83-.33 26.8-.47 5.36-1.42 11.32-2.11 13.26a20.12 20.12 0 0 1-3.73 6.08 14.2 14.2 0 0 1-5.26 3.33c-1.53.42-3.83.74-5.12.7Zm-100.66-30.74c4.95-.19 7.62-.72 10.4-2.05a32.74 32.74 0 0 0 7.14-5.09c1.87-1.8 4.69-5.91 6.27-9.13a49.54 49.54 0 0 0 4-12.08 81.2 81.2 0 0 0 1.12-11.72c0-3.02-.5-8.3-1.12-11.73a49.55 49.55 0 0 0-3.97-12.03c-1.57-3.18-4.27-7.2-6-8.92a30.74 30.74 0 0 0-7.47-5.12 29.42 29.42 0 0 0-9.64-2.37c-4.03-.29-6.63.03-10.96 1.35-4.85 1.47-6.33 2.38-10.07 6.17-2.42 2.45-5.36 6.45-6.54 8.9a57.47 57.47 0 0 0-3.4 9.8c-.75 3.18-1.25 8.8-1.25 13.95 0 5.14.5 10.76 1.25 13.95.69 2.94 2.2 7.26 3.35 9.61a42.64 42.64 0 0 0 4.82 7.46 33.46 33.46 0 0 0 5.68 5.14 31.52 31.52 0 0 0 6.34 3.06c2.17.7 5.8 1.01 10.05.85Zm348.04-1.63c2.78-.19 6.19-1.11 8.77-2.38a18.77 18.77 0 0 0 6.62-5.32 37.05 37.05 0 0 0 3.96-7.46 80.78 80.78 0 0 0 2.83-11.4c.93-5.29 1.13-9.56.78-16.2-.27-4.95-1.02-11.21-1.66-13.91-.64-2.7-2.07-6.7-3.18-8.88a39.51 39.51 0 0 0-5.16-7.4 26.6 26.6 0 0 0-6.46-5.01c-2.31-1.12-4.85-1.6-8.36-1.6-3.2.02-6.2.55-8.17 1.46-1.73.79-4.73 3.16-6.67 5.27a43.4 43.4 0 0 0-6.12 9.49 63.06 63.06 0 0 0-3.8 12.3c-.88 4.74-1.12 9.52-.85 16.67.28 7.29.84 11.45 2.06 15.24a41.86 41.86 0 0 0 4.3 9.01 28.75 28.75 0 0 0 5.8 6.05 27.35 27.35 0 0 0 6.98 3.33c2.08.58 5.83.92 8.33.74Z"/></svg>