<?xml version="1.0" encoding="UTF-8"?>
<!-- Generated by Pixelmator Pro 3.6.18 -->
<svg width="724" height="1703" viewBox="0 0 724 1703" xmlns="http://www.w3.org/2000/svg">
    <g id="Group">
        <g id="g1">
            <path id="Shape" fill="#3d3e43" fill-rule="evenodd" stroke="none" d="M 35 90 C 35 104.911743 47.08831 117 62 117 L 93 117 C 107.91169 117 120 104.911743 120 90 L 120 60 C 120 45.088257 107.91169 33 93 33 L 62 33 C 47.08831 33 35 45.088257 35 60 Z"/>
            <path id="path1" fill="#3d3e43" fill-rule="evenodd" stroke="none" d="M 35 210 C 35 224.911743 47.08831 237 62 237 L 93 237 C 107.91169 237 120 224.911743 120 210 L 120 180 C 120 165.088257 107.91169 153 93 153 L 62 153 C 47.08831 153 35 165.088257 35 180 Z"/>
            <path id="path2" fill="#3d3e43" fill-rule="evenodd" stroke="none" d="M 35 317 C 35 331.911743 47.08831 344 62 344 L 93 344 C 107.91169 344 120 331.911743 120 317 L 120 287 C 120 272.088257 107.91169 260 93 260 L 62 260 C 47.08831 260 35 272.088257 35 287 Z"/>
            <path id="path3" fill="#3d3e43" fill-rule="evenodd" stroke="none" d="M 35 424 C 35 438.911743 47.08831 451 62 451 L 93 451 C 107.91169 451 120 438.911743 120 424 L 120 394 C 120 379.088257 107.91169 367 93 367 L 62 367 C 47.08831 367 35 379.088257 35 394 Z"/>
            <path id="path4" fill="#3d3e43" fill-rule="evenodd" stroke="none" d="M 35 531 C 35 545.911743 47.08831 558 62 558 L 93 558 C 107.91169 558 120 545.911743 120 531 L 120 501 C 120 486.088257 107.91169 474 93 474 L 62 474 C 47.08831 474 35 486.088257 35 501 Z"/>
            <path id="path5" fill="#3d3e43" fill-rule="evenodd" stroke="none" d="M 35 637 C 35 651.911743 47.08831 664 62 664 L 93 664 C 107.91169 664 120 651.911743 120 637 L 120 607 C 120 592.088257 107.91169 580 93 580 L 62 580 C 47.08831 580 35 592.088257 35 607 Z"/>
            <path id="path6" fill="#3d3e43" fill-rule="evenodd" stroke="none" d="M 35 744 C 35 758.911682 47.08831 771 62 771 L 93 771 C 107.91169 771 120 758.911682 120 744 L 120 714 C 120 699.088318 107.91169 687 93 687 L 62 687 C 47.08831 687 35 699.088318 35 714 Z"/>
            <path id="path7" fill="#3d3e43" fill-rule="evenodd" stroke="none" d="M 35 851 C 35 865.911682 47.08831 878 62 878 L 93 878 C 107.91169 878 120 865.911682 120 851 L 120 821 C 120 806.088318 107.91169 794 93 794 L 62 794 C 47.08831 794 35 806.088318 35 821 Z"/>
            <path id="path8" fill="#3d3e43" fill-rule="evenodd" stroke="none" d="M 35 1171 C 35 1185.911621 47.08831 1198 62 1198 L 93 1198 C 107.91169 1198 120 1185.911621 120 1171 L 120 1141 C 120 1126.088379 107.91169 1114 93 1114 L 62 1114 C 47.08831 1114 35 1126.088379 35 1141 Z"/>
            <path id="path9" fill="#3d3e43" fill-rule="evenodd" stroke="none" d="M 35 1065 C 35 1079.911621 47.08831 1092 62 1092 L 93 1092 C 107.91169 1092 120 1079.911621 120 1065 L 120 1035 C 120 1020.088318 107.91169 1008 93 1008 L 62 1008 C 47.08831 1008 35 1020.088318 35 1035 Z"/>
            <path id="path10" fill="#3d3e43" fill-rule="evenodd" stroke="none" d="M 35 958 C 35 972.911682 47.08831 985 62 985 L 93 985 C 107.91169 985 120 972.911682 120 958 L 120 928 C 120 913.088318 107.91169 901 93 901 L 62 901 C 47.08831 901 35 913.088318 35 928 Z"/>
            <path id="path11" fill="#3d3e43" fill-rule="evenodd" stroke="none" d="M 35 1278 C 35 1292.911621 47.08831 1305 62 1305 L 93 1305 C 107.91169 1305 120 1292.911621 120 1278 L 120 1248 C 120 1233.088379 107.91169 1221 93 1221 L 62 1221 C 47.08831 1221 35 1233.088379 35 1248 Z"/>
            <path id="path12" fill="#3d3e43" fill-rule="evenodd" stroke="none" d="M 35 1385 C 35 1399.911621 47.08831 1412 62 1412 L 93 1412 C 107.91169 1412 120 1399.911621 120 1385 L 120 1355 C 120 1340.088379 107.91169 1328 93 1328 L 62 1328 C 47.08831 1328 35 1340.088379 35 1355 Z"/>
            <path id="path13" fill="#3d3e43" fill-rule="evenodd" stroke="none" d="M 35 1598 C 35 1612.911743 47.08831 1625 62 1625 L 93 1625 C 107.91169 1625 120 1612.911743 120 1598 L 120 1568 C 120 1553.088379 107.91169 1541 93 1541 L 62 1541 C 47.08831 1541 35 1553.088379 35 1568 Z"/>
            <path id="path14" fill="#3d3e43" fill-rule="evenodd" stroke="none" d="M 35 1492 C 35 1506.911621 47.08831 1519 62 1519 L 93 1519 C 107.91169 1519 120 1506.911621 120 1492 L 120 1462 C 120 1447.088379 107.91169 1435 93 1435 L 62 1435 C 47.08831 1435 35 1447.088379 35 1462 Z"/>
        </g>
        <path id="Rounded-Rectangle-copy-14" fill="#393a40" fill-rule="evenodd" stroke="none" d="M 181 99 C 181 109.493408 189.506592 118 200 118 L 667 118 C 677.493408 118 686 109.493408 686 99 L 686 77 C 686 66.506592 677.493408 58 667 58 L 200 58 C 189.506592 58 181 66.506592 181 77 Z"/>
        <path id="Rounded-Rectangle-copy-20" fill="#3d3e43" fill-rule="evenodd" stroke="none" d="M 177 218 C 177 228.493408 185.506592 237 196 237 L 675 237 C 685.493408 237 694 228.493408 694 218 L 694 172 C 694 161.506592 685.493408 153 675 153 L 196 153 C 185.506592 153 177 161.506592 177 172 Z"/>
        <path id="Shape-copy" fill="#3d3e43" fill-rule="evenodd" stroke="none" d="M 258 678.5 C 258 661.103027 243.896973 647 226.5 647 C 209.103027 647 195 661.103027 195 678.5 C 195 695.896973 209.103027 710 226.5 710 C 243.896973 710 258 695.896973 258 678.5 Z"/>
        <path id="Shape-copy-2" fill="#3d3e43" fill-rule="evenodd" stroke="none" d="M 258 777.5 C 258 760.103027 243.896973 746 226.5 746 C 209.103027 746 195 760.103027 195 777.5 C 195 794.896973 209.103027 809 226.5 809 C 243.896973 809 258 794.896973 258 777.5 Z"/>
        <path id="path15" fill="#3d3e43" fill-rule="evenodd" stroke="none" d="M 258 571.5 C 258 554.103027 243.896973 540 226.5 540 C 209.103027 540 195 554.103027 195 571.5 C 195 588.896973 209.103027 603 226.5 603 C 243.896973 603 258 588.896973 258 571.5 Z"/>
        <path id="path16" fill="#3d3e43" fill-rule="evenodd" stroke="none" d="M 173 500 C 173 510.493408 181.506592 519 192 519 L 671 519 C 681.493408 519 690 510.493408 690 500 L 690 454 C 690 443.506592 681.493408 435 671 435 L 192 435 C 181.506592 435 173 443.506592 173 454 L 173 500 Z M 226.5 446 C 243.896973 446 258 460.103027 258 477.5 C 258 494.896973 243.896973 509 226.5 509 C 209.103027 509 195 494.896973 195 477.5 C 195 460.103027 209.103027 446 226.5 446 Z M 291 498 L 616 498 L 616 457 L 291 457 L 291 498 Z"/>
        <path id="Rectangle-copy" fill="#3d3e43" fill-rule="evenodd" stroke="none" d="M 291 592 L 585 592 L 585 551 L 291 551 Z"/>
        <path id="Rectangle-copy-2" fill="#3d3e43" fill-rule="evenodd" stroke="none" d="M 291 699 L 650 699 L 650 658 L 291 658 Z"/>
        <path id="Rectangle-copy-3" fill="#3d3e43" fill-rule="evenodd" stroke="none" d="M 291 798 L 568 798 L 568 757 L 291 757 Z"/>
        <path id="path17" fill="none" stroke="#3d3e43" stroke-width="3" stroke-linecap="round" stroke-linejoin="round" d="M 159 136 L 705 136 M 179 415 L 686 415 M 45 136 L 111 136"/>
        <path id="Rounded-Rectangle-copy-16" fill="none" stroke="#393a40" stroke-width="3" stroke-linecap="round" stroke-linejoin="round" d="M 159 1650 C 159 1660.493408 167.506592 1669 178 1669 L 1553 1669 C 1563.493408 1669 1572 1660.493408 1572 1650 L 1572 52 C 1572 41.506592 1563.493408 33 1553 33 L 178 33 C 167.506592 33 159 41.506592 159 52 Z"/>
    </g>
    <path id="Rounded-Rectangle" fill="#36373e" fill-rule="evenodd" stroke="none" d="M 19 1632 C 19 1652.986816 36.01318 1670 57 1670 L 669 1670 C 689.986816 1670 707 1652.986816 707 1632 L 707 1595 C 707 1574.013184 689.986816 1557 669 1557 L 57 1557 C 36.01318 1557 19 1574.013184 19 1595 Z"/>
</svg>
