<?xml version="1.0" encoding="UTF-8"?>
<!-- Generated by Pixelmator Pro 3.6.18 -->
<svg width="1024" height="1053" viewBox="0 0 1024 1053" xmlns="http://www.w3.org/2000/svg">
    <path id="Rectangle" fill="#ba5bc8" fill-rule="evenodd" stroke="none" d="M 0 578 L 1024 578 L 1024 0 L 0 0 Z"/>
    <path id="Rectangle-copy" fill="#ba5bc8" fill-rule="evenodd" stroke="none" d="M 0 1070 L 1024 1070 L 1024 784 L 0 784 Z"/>
    <path id="Shape" fill="#ba5bc8" fill-rule="evenodd" stroke="none" d="M 852.15625 631 C 852.15625 634.865967 855.290283 638 859.15625 638 L 1017 638 C 1020.866028 638 1024 634.865967 1024 631 L 1024 606 C 1024 602.134033 1020.866028 599 1017 599 L 859.15625 599 C 855.290283 599 852.15625 602.134033 852.15625 606 Z M 722.96875 631 C 722.96875 634.865967 726.102783 638 729.96875 638 L 828.09375 638 C 831.959717 638 835.09375 634.865967 835.09375 631 L 835.09375 606 C 835.09375 602.134033 831.959717 599 828.09375 599 L 729.96875 599 C 726.102783 599 722.96875 602.134033 722.96875 606 Z"/>
    <path id="path1" fill="#ba5bc8" fill-rule="evenodd" stroke="none" d="M 128.153839 673.923096 C 128.153839 638.534363 99.46563 609.846191 64.07692 609.846191 C 28.688215 609.846191 0 638.534363 0 673.923096 C 0 709.311768 28.688215 738 64.07692 738 C 99.46563 738 128.153839 709.311768 128.153839 673.923096 Z M 167.115387 723.314087 C 167.115387 731.219604 173.524033 737.628174 181.429489 737.628174 L 512.544861 737.628174 C 520.450317 737.628174 526.858948 731.219604 526.858948 723.314087 C 526.858948 715.40863 520.450317 709 512.544861 709 L 181.429489 709 C 173.524033 709 167.115387 715.40863 167.115387 723.314087 Z M 167.115387 677.314087 C 167.115387 685.219604 173.524033 691.628174 181.429489 691.628174 L 967.685852 691.628174 C 975.591309 691.628174 982 685.219604 982 677.314087 C 982 669.40863 975.591309 663 967.685852 663 L 181.429489 663 C 173.524033 663 167.115387 669.40863 167.115387 677.314087 Z M 167.115387 632.44873 C 167.115387 640.485168 173.630219 647 181.666672 647 L 415 647 C 423.036438 647 429.55127 640.485168 429.55127 632.44873 C 429.55127 624.412231 423.036438 617.897461 415 617.897461 L 181.666672 617.897461 C 173.630219 617.897461 167.115387 624.412231 167.115387 632.44873 Z M 658.076904 723.467957 C 658.076904 730.389221 663.687683 736 670.608948 736 L 801.826904 736 C 808.748169 736 814.359009 730.389221 814.359009 723.467957 C 814.359009 716.546692 808.748169 710.935913 801.826904 710.935913 L 670.608948 710.935913 C 663.687683 710.935913 658.076904 716.546692 658.076904 723.467957 Z M 546.025635 723.467957 C 546.025635 730.389221 551.636414 736 558.557678 736 L 632.275635 736 C 639.196899 736 644.807678 730.389221 644.807678 723.467957 C 644.807678 716.546692 639.196899 710.935913 632.275635 710.935913 L 558.557678 710.935913 C 551.636414 710.935913 546.025635 716.546692 546.025635 723.467957 Z"/>
</svg>
