<?xml version="1.0" encoding="UTF-8"?>
<!-- Generated by Pixelmator Pro 3.7 -->
<svg width="696" height="335" viewBox="0 0 696 335" xmlns="http://www.w3.org/2000/svg" xmlns:xlink="http://www.w3.org/1999/xlink">
    <g id="Group">
        <linearGradient id="linearGradient1" x1="474" y1="319.321521" x2="474" y2="93.768123" gradientUnits="userSpaceOnUse">
            <stop offset="0" stop-color="#161616" stop-opacity="1"/>
            <stop offset="1" stop-color="#848484" stop-opacity="1"/>
        </linearGradient>
        <path id="Rounded-Rectangle" fill="url(#linearGradient1)" fill-rule="evenodd" stroke="none" d="M 282 293.592224 C 282 309.03476 294.518646 321.553406 309.961151 321.553406 L 638.038818 321.553406 C 653.481323 321.553406 666 309.03476 666 293.592224 L 666 123.961151 C 666 108.518631 653.481323 96 638.038818 96 L 309.961151 96 C 294.518646 96 282 108.518631 282 123.961151 Z"/>
        <g id="g1">
            <path id="VIXA" fill="#ff7a00" fill-rule="evenodd" stroke="none" d="M 413.766998 164.941742 L 369.553406 249 L 342.524261 249 L 333.262146 164.941742 L 356.621368 164.941742 L 359.883484 226.689316 L 360.990295 226.689316 L 389.650482 164.941742 L 413.766998 164.941742 Z M 431.41748 249 L 449.300964 164.941742 L 427.922333 164.941742 L 410.038818 249 L 431.41748 249 Z M 469.631104 249 L 446.446594 249 L 482.155334 205.834961 L 464.56311 164.941742 L 488.504883 164.941742 L 499.631104 191.85437 L 500.737854 191.85437 L 520.660156 164.941742 L 544.368896 164.941742 L 507.844666 207.757278 L 526.310669 249 L 502.601929 249 L 491.242737 223.019409 L 490.135925 223.019409 L 469.631104 249 Z M 618.407776 249 L 596.097046 249 L 594.815552 230.533981 L 567.262146 230.533981 L 557.825256 249 L 535.747559 249 L 582.757324 164.941742 L 608.679626 164.941742 L 618.407776 249 Z M 591.902954 183.932037 L 590.737854 183.932037 L 574.776733 215.155334 L 594.174744 215.155334 L 591.902954 183.932037 Z"/>
            <mask id="mask1" maskUnits="userSpaceOnUse" maskContentUnits="userSpaceOnUse" mask-type="alpha">
                <path id="path1" fill="#ff7a00" fill-rule="evenodd" stroke="none" d="M 413.766998 164.941742 L 369.553406 249 L 342.524261 249 L 333.262146 164.941742 L 356.621368 164.941742 L 359.883484 226.689316 L 360.990295 226.689316 L 389.650482 164.941742 L 413.766998 164.941742 Z M 431.41748 249 L 449.300964 164.941742 L 427.922333 164.941742 L 410.038818 249 L 431.41748 249 Z M 469.631104 249 L 446.446594 249 L 482.155334 205.834961 L 464.56311 164.941742 L 488.504883 164.941742 L 499.631104 191.85437 L 500.737854 191.85437 L 520.660156 164.941742 L 544.368896 164.941742 L 507.844666 207.757278 L 526.310669 249 L 502.601929 249 L 491.242737 223.019409 L 490.135925 223.019409 L 469.631104 249 Z M 618.407776 249 L 596.097046 249 L 594.815552 230.533981 L 567.262146 230.533981 L 557.825256 249 L 535.747559 249 L 582.757324 164.941742 L 608.679626 164.941742 L 618.407776 249 Z M 591.902954 183.932037 L 590.737854 183.932037 L 574.776733 215.155334 L 594.174744 215.155334 L 591.902954 183.932037 Z"/>
            </mask>
            <g id="g2" mask="url(#mask1)">
                <path id="Rectangle" fill="#3c3c3c" fill-rule="evenodd" stroke="none" d="M 548.56311 215.300964 L 630.58252 215.300964 L 630.58252 159.378647 L 548.56311 159.378647 Z"/>
            </g>
            <path id="Path" fill="#f8d096" fill-rule="evenodd" stroke="none" d="M 309.961151 159.378647 L 356.56311 159.378647 L 360.29126 205.980576 L 309.961151 159.378647 Z"/>
        </g>
    </g>
    <path id="Shape" fill="#7a7a7a" fill-rule="evenodd" stroke="none" d="M 111.789841 288.978027 C 41.782394 288.957336 37.266205 288.849884 33.444191 287.113861 C 31.213501 286.100647 27.798248 283.41394 25.854752 281.143402 C 23.911255 278.872864 21.798866 275.272034 21.160561 273.141541 C 20.338936 270.399231 20 252.689224 20 212.5 C 20 172.310776 20.338936 154.600784 21.160561 151.858444 C 21.798866 149.727966 23.809006 146.246582 25.627541 144.12204 C 27.446075 141.997482 30.636322 139.483139 32.71698 138.534607 C 34.797646 137.58606 37.287498 135.902878 38.25 134.794205 C 39.791107 133.019043 40 130.391708 40 112.783554 C 40 97.913757 40.401558 91.213776 41.566628 86.644348 C 42.428268 83.264954 44.763916 77.172699 46.756943 73.105957 C 49.192932 68.135406 52.53064 63.53421 56.940315 59.067688 C 60.548141 55.413361 65.974998 51.015686 69 49.295074 C 72.025002 47.574463 77.298302 45.229187 80.71846 44.083344 C 86.329865 42.203369 89.27417 42 110.879364 42 C 131.465408 42 135.664795 42.26236 140.835114 43.871552 C 144.142441 44.900909 149.699142 47.337311 153.183365 49.285797 C 156.667587 51.234283 162.247665 55.679596 165.583542 59.164246 C 168.919418 62.648926 172.900131 67.645325 174.429581 70.267365 C 175.95903 72.889435 178.343796 78.289429 179.729065 82.267365 C 182.012222 88.823746 182.284149 91.323273 182.63736 109 C 182.851669 119.725006 183.358429 130.072906 183.763504 131.995346 C 184.353241 134.794205 185.297043 135.859238 188.5 137.340225 C 190.699997 138.357468 193.947693 140.570984 195.717087 142.259155 C 197.486481 143.947311 199.848984 147.274704 200.967087 149.653366 C 202.939682 153.849869 202.999344 155.721878 202.978043 212.739105 C 202.957535 267.590698 202.834 271.766113 201.121155 275.5 C 200.111954 277.700012 197.990234 280.782745 196.406235 282.350525 C 194.82222 283.918335 191.850739 286.055817 189.802948 287.100525 C 186.243073 288.916656 182.819565 288.999023 111.789841 288.978027 Z M 114.940216 250.546265 C 116.832336 250.281021 119.307343 249.138382 120.440216 248.00705 C 122.294647 246.155182 122.532181 244.513092 122.822769 231.535889 C 123.145554 217.121643 123.145554 217.121643 127.60199 213.46994 C 130.053024 211.461502 133.252594 207.496628 134.712143 204.659119 C 136.556076 201.07431 137.375427 197.916565 137.397217 194.310974 C 137.415161 191.342056 136.66124 187.491409 135.635117 185.310974 C 134.648727 183.214935 132.258362 179.861023 130.323196 177.857849 C 128.388031 175.85466 124.967361 173.387161 122.72171 172.374512 C 120.309357 171.286697 116.331512 170.53334 113 170.53334 C 109.583023 170.53334 105.682236 171.290482 103.099899 172.454956 C 100.756119 173.511841 97.075241 176.37973 94.920166 178.828049 C 92.765076 181.276352 90.501862 185.12912 89.890808 187.389755 C 89.279755 189.650391 89.020996 193.854385 89.315781 196.731979 C 89.61058 199.609573 90.884308 203.801117 92.146301 206.046524 C 93.408295 208.291946 96.59166 211.674301 99.220428 213.562897 C 104 216.996674 104 216.996674 104.035431 230.248337 C 104.059692 239.319092 104.4888 244.254028 105.395508 245.889923 C 106.124054 247.204391 107.795609 248.898315 109.110077 249.65419 C 110.475311 250.43927 112.975006 250.821747 114.940216 250.546265 Z M 111 136 C 159.37471 136 160.026672 135.973328 162.090622 133.909378 C 164.098129 131.901871 164.164322 131.056976 163.755356 112.659378 C 163.389038 96.180725 163.025208 92.660492 161.155029 87.5 C 159.959106 84.199997 157.297485 79.278687 155.240311 76.563782 C 153.183136 73.848846 149.384476 70.110016 146.798828 68.255249 C 144.213181 66.400482 139.506805 63.972351 136.34021 62.859375 C 132.263351 61.426483 126.878754 60.671051 117.893311 60.271454 C 110.654922 59.949524 101.460007 60.190369 96.488617 60.832092 C 91.551605 61.469421 85.452011 63.019897 82.41864 64.40863 C 79.473511 65.756927 74.859077 68.922424 72.16433 71.443054 C 69.469582 73.963684 65.812332 78.751099 64.037094 82.081787 C 62.124924 85.669388 60.251106 91.268219 59.43959 95.818771 C 58.686195 100.043457 58.054077 109.912506 58.034889 117.75 C 58.003197 130.69313 58.183418 132.183426 60 134 C 61.94558 135.945572 63.333336 136 111 136 Z"/>
    <path id="Powered-by" fill="#818181" fill-rule="evenodd" stroke="none" d="M 631.375 77.125 C 639.875 77.125 644.40625 74.0625 647.46875 64.96875 L 659.1875 30.59375 L 649.5625 30.59375 L 642.34375 56.65625 L 641.71875 56.65625 L 634.5 30.59375 L 624.46875 30.59375 L 636.5625 65 L 636.25 66.3125 C 635.59375 69 633.71875 70.25 630.46875 70.25 C 629.625 70.25 628.71875 70.21875 628.09375 70.15625 L 628.09375 77.03125 C 629.15625 77.09375 630.3125 77.125 631.375 77.125 Z M 607.3125 65.53125 C 615.90625 65.53125 621.28125 58.8125 621.28125 47.8125 L 621.28125 47.75 C 621.28125 36.6875 616.03125 30.03125 607.3125 30.03125 C 602.59375 30.03125 598.75 32.34375 597 36.09375 L 596.4375 36.09375 L 596.4375 17.4375 L 587.3125 17.4375 L 587.3125 65 L 596.4375 65 L 596.4375 59.65625 L 597 59.65625 C 598.78125 63.375 602.4375 65.53125 607.3125 65.53125 Z M 604.1875 57.96875 C 599.375 57.96875 596.34375 54.15625 596.34375 47.84375 L 596.34375 47.78125 C 596.34375 41.46875 599.40625 37.59375 604.1875 37.59375 C 609 37.59375 612 41.46875 612 47.75 L 612 47.8125 C 612 54.15625 609.03125 57.96875 604.1875 57.96875 Z M 541.09375 65.53125 C 545.9375 65.53125 549.59375 63.375 551.375 59.65625 L 551.9375 59.65625 L 551.9375 65 L 561.0625 65 L 561.0625 17.4375 L 551.9375 17.4375 L 551.9375 36.09375 L 551.375 36.09375 C 549.65625 32.34375 545.8125 30.03125 541.09375 30.03125 C 532.375 30.03125 527.125 36.6875 527.125 47.75 L 527.125 47.8125 C 527.125 58.8125 532.5 65.53125 541.09375 65.53125 Z M 544.1875 57.96875 C 539.375 57.96875 536.40625 54.15625 536.40625 47.8125 L 536.40625 47.75 C 536.40625 41.46875 539.375 37.59375 544.1875 37.59375 C 549 37.59375 552.03125 41.46875 552.03125 47.78125 L 552.03125 47.84375 C 552.03125 54.15625 549.03125 57.96875 544.1875 57.96875 Z M 505.46875 65.71875 C 515.53125 65.71875 519.96875 59.90625 521.03125 55.59375 L 521.09375 55.28125 L 512.59375 55.28125 L 512.5 55.46875 C 511.875 56.78125 509.65625 58.90625 505.65625 58.90625 C 500.8125 58.90625 497.78125 55.625 497.6875 49.96875 L 521.375 49.96875 L 521.375 47.125 C 521.375 36.71875 515.125 29.84375 505.09375 29.84375 C 495.0625 29.84375 488.65625 36.875 488.65625 47.8125 L 488.65625 47.84375 C 488.65625 58.875 495 65.71875 505.46875 65.71875 Z M 505.25 36.6875 C 509.21875 36.6875 512.0625 39.25 512.625 44.25 L 497.78125 44.25 C 498.34375 39.375 501.28125 36.6875 505.25 36.6875 Z M 463.28125 65 L 472.40625 65 L 472.40625 45.75 C 472.40625 40.875 475.6875 37.90625 480.875 37.90625 C 482.28125 37.90625 483.6875 38.125 485.0625 38.4375 L 485.0625 30.46875 C 484.15625 30.21875 482.875 30.03125 481.65625 30.03125 C 477.1875 30.03125 474.0625 32.21875 472.96875 35.9375 L 472.40625 35.9375 L 472.40625 30.59375 L 463.28125 30.59375 Z M 439.9375 65.71875 C 450 65.71875 454.4375 59.90625 455.5 55.59375 L 455.5625 55.28125 L 447.0625 55.28125 L 446.96875 55.46875 C 446.34375 56.78125 444.125 58.90625 440.125 58.90625 C 435.28125 58.90625 432.25 55.625 432.15625 49.96875 L 455.84375 49.96875 L 455.84375 47.125 C 455.84375 36.71875 449.59375 29.84375 439.5625 29.84375 C 429.53125 29.84375 423.125 36.875 423.125 47.8125 L 423.125 47.84375 C 423.125 58.875 429.46875 65.71875 439.9375 65.71875 Z M 439.71875 36.6875 C 443.6875 36.6875 446.53125 39.25 447.09375 44.25 L 432.25 44.25 C 432.8125 39.375 435.75 36.6875 439.71875 36.6875 Z M 378.53125 65 L 388.09375 65 L 394.1875 41 L 394.75 41 L 400.90625 65 L 410.59375 65 L 419.75 30.59375 L 410.71875 30.59375 L 405.59375 55.5 L 405.03125 55.5 L 398.96875 30.59375 L 390.28125 30.59375 L 384.25 55.5 L 383.6875 55.5 L 378.5625 30.59375 L 369.34375 30.59375 Z M 349.03125 65.71875 C 359.625 65.71875 366 59.03125 366 47.8125 L 366 47.75 C 366 36.625 359.53125 29.84375 349.03125 29.84375 C 338.53125 29.84375 332.0625 36.65625 332.0625 47.75 L 332.0625 47.8125 C 332.0625 59 338.4375 65.71875 349.03125 65.71875 Z M 349.03125 58.5625 C 344.15625 58.5625 341.40625 54.59375 341.40625 47.8125 L 341.40625 47.75 C 341.40625 41.03125 344.1875 37 349.03125 37 C 353.84375 37 356.65625 41.03125 356.65625 47.75 L 356.65625 47.8125 C 356.65625 54.59375 353.875 58.5625 349.03125 58.5625 Z M 292.46875 65 L 301.90625 65 L 301.90625 50.78125 L 311.0625 50.78125 C 320.5625 50.78125 326.90625 44.65625 326.90625 35.375 L 326.90625 35.3125 C 326.90625 26.03125 320.5625 19.90625 311.0625 19.90625 L 292.46875 19.90625 Z M 308.75 27.375 C 314.15625 27.375 317.34375 30.21875 317.34375 35.34375 L 317.34375 35.40625 C 317.34375 40.53125 314.15625 43.40625 308.75 43.40625 L 301.90625 43.40625 L 301.90625 27.375 Z"/>
</svg>
